<mxfile host="app.diagrams.net" agent="Mozilla/5.0 (Windows NT 10.0; Win64; x64) AppleWebKit/537.36 (KHTML, like Gecko) Chrome/130.0.0.0 Safari/537.36" version="24.8.3" pages="6">
  <diagram id="VA8j8i1ZU_Ag11eMpn46" name="UC - Main">
    <mxGraphModel dx="1418" dy="820" grid="1" gridSize="10" guides="1" tooltips="1" connect="1" arrows="1" fold="1" page="1" pageScale="1" pageWidth="827" pageHeight="1169" math="0" shadow="0">
      <root>
        <mxCell id="0" />
        <mxCell id="1" parent="0" />
        <mxCell id="HyBdx4KYr_q8TzmlNEte-22" value="" style="edgeStyle=orthogonalEdgeStyle;rounded=1;orthogonalLoop=1;jettySize=auto;endArrow=block;endFill=1;jumpStyle=gap;jumpSize=10;html=1;" parent="1" source="HyBdx4KYr_q8TzmlNEte-1" target="HyBdx4KYr_q8TzmlNEte-12" edge="1">
          <mxGeometry relative="1" as="geometry">
            <Array as="points">
              <mxPoint x="450" y="100" />
              <mxPoint x="450" y="60" />
            </Array>
          </mxGeometry>
        </mxCell>
        <mxCell id="HyBdx4KYr_q8TzmlNEte-27" value="" style="edgeStyle=orthogonalEdgeStyle;rounded=1;orthogonalLoop=1;jettySize=auto;endArrow=block;endFill=1;jumpStyle=gap;jumpSize=10;html=1;" parent="1" source="HyBdx4KYr_q8TzmlNEte-1" target="HyBdx4KYr_q8TzmlNEte-26" edge="1">
          <mxGeometry relative="1" as="geometry">
            <Array as="points">
              <mxPoint x="450" y="120" />
              <mxPoint x="450" y="300" />
            </Array>
          </mxGeometry>
        </mxCell>
        <mxCell id="HyBdx4KYr_q8TzmlNEte-36" value="" style="edgeStyle=orthogonalEdgeStyle;rounded=1;orthogonalLoop=1;jettySize=auto;endArrow=block;endFill=1;jumpStyle=gap;jumpSize=10;html=1;" parent="1" source="HyBdx4KYr_q8TzmlNEte-1" target="HyBdx4KYr_q8TzmlNEte-15" edge="1">
          <mxGeometry relative="1" as="geometry">
            <Array as="points">
              <mxPoint x="450" y="120" />
              <mxPoint x="450" y="210" />
            </Array>
          </mxGeometry>
        </mxCell>
        <mxCell id="HyBdx4KYr_q8TzmlNEte-1" value="User&lt;br&gt;(logged in)" style="shape=umlActor;verticalLabelPosition=bottom;verticalAlign=top;outlineConnect=0;html=1;" parent="1" vertex="1">
          <mxGeometry x="480" y="80" width="30" height="60" as="geometry" />
        </mxCell>
        <mxCell id="HyBdx4KYr_q8TzmlNEte-9" value="" style="edgeStyle=orthogonalEdgeStyle;rounded=1;orthogonalLoop=1;jettySize=auto;endArrow=block;endFill=0;html=1;" parent="1" source="HyBdx4KYr_q8TzmlNEte-2" target="HyBdx4KYr_q8TzmlNEte-1" edge="1">
          <mxGeometry relative="1" as="geometry">
            <Array as="points">
              <mxPoint x="540" y="230" />
              <mxPoint x="540" y="130" />
            </Array>
          </mxGeometry>
        </mxCell>
        <mxCell id="HyBdx4KYr_q8TzmlNEte-31" value="" style="edgeStyle=orthogonalEdgeStyle;rounded=1;orthogonalLoop=1;jettySize=auto;endArrow=block;endFill=1;jumpStyle=gap;jumpSize=10;html=1;" parent="1" source="HyBdx4KYr_q8TzmlNEte-2" target="HyBdx4KYr_q8TzmlNEte-30" edge="1">
          <mxGeometry relative="1" as="geometry">
            <Array as="points">
              <mxPoint x="430" y="230" />
              <mxPoint x="430" y="160" />
            </Array>
          </mxGeometry>
        </mxCell>
        <mxCell id="HyBdx4KYr_q8TzmlNEte-35" value="" style="edgeStyle=orthogonalEdgeStyle;rounded=1;orthogonalLoop=1;jettySize=auto;endArrow=block;endFill=1;jumpStyle=gap;jumpSize=10;html=1;" parent="1" source="HyBdx4KYr_q8TzmlNEte-2" target="HyBdx4KYr_q8TzmlNEte-34" edge="1">
          <mxGeometry relative="1" as="geometry">
            <Array as="points">
              <mxPoint x="430" y="230" />
              <mxPoint x="430" y="260" />
            </Array>
          </mxGeometry>
        </mxCell>
        <mxCell id="HyBdx4KYr_q8TzmlNEte-2" value="Employee" style="shape=umlActor;verticalLabelPosition=bottom;verticalAlign=top;outlineConnect=0;html=1;whiteSpace=wrap;" parent="1" vertex="1">
          <mxGeometry x="480" y="200" width="30" height="60" as="geometry" />
        </mxCell>
        <mxCell id="HyBdx4KYr_q8TzmlNEte-16" value="" style="rounded=1;orthogonalLoop=1;jettySize=auto;endArrow=block;endFill=1;edgeStyle=orthogonalEdgeStyle;jumpStyle=gap;html=1;" parent="1" source="HyBdx4KYr_q8TzmlNEte-3" target="HyBdx4KYr_q8TzmlNEte-15" edge="1">
          <mxGeometry relative="1" as="geometry" />
        </mxCell>
        <mxCell id="HyBdx4KYr_q8TzmlNEte-17" value="" style="edgeStyle=orthogonalEdgeStyle;rounded=1;orthogonalLoop=1;jettySize=auto;endArrow=block;endFill=1;jumpStyle=gap;html=1;" parent="1" source="HyBdx4KYr_q8TzmlNEte-3" target="HyBdx4KYr_q8TzmlNEte-14" edge="1">
          <mxGeometry relative="1" as="geometry">
            <Array as="points">
              <mxPoint x="120" y="210" />
              <mxPoint x="120" y="150" />
            </Array>
          </mxGeometry>
        </mxCell>
        <mxCell id="HyBdx4KYr_q8TzmlNEte-18" value="" style="edgeStyle=orthogonalEdgeStyle;rounded=1;orthogonalLoop=1;jettySize=auto;endArrow=block;endFill=1;jumpStyle=gap;html=1;" parent="1" source="HyBdx4KYr_q8TzmlNEte-3" target="HyBdx4KYr_q8TzmlNEte-11" edge="1">
          <mxGeometry relative="1" as="geometry">
            <Array as="points">
              <mxPoint x="120" y="210" />
              <mxPoint x="120" y="100" />
            </Array>
          </mxGeometry>
        </mxCell>
        <mxCell id="HyBdx4KYr_q8TzmlNEte-3" value="Guest&lt;br&gt;(not logged in)" style="shape=umlActor;verticalLabelPosition=bottom;verticalAlign=top;outlineConnect=0;html=1;" parent="1" vertex="1">
          <mxGeometry x="40" y="180" width="30" height="60" as="geometry" />
        </mxCell>
        <mxCell id="HyBdx4KYr_q8TzmlNEte-10" value="" style="edgeStyle=orthogonalEdgeStyle;rounded=1;orthogonalLoop=1;jettySize=auto;endArrow=block;endFill=0;html=1;" parent="1" source="HyBdx4KYr_q8TzmlNEte-6" target="HyBdx4KYr_q8TzmlNEte-1" edge="1">
          <mxGeometry relative="1" as="geometry">
            <Array as="points">
              <mxPoint x="560" y="340" />
              <mxPoint x="560" y="90" />
            </Array>
          </mxGeometry>
        </mxCell>
        <mxCell id="HyBdx4KYr_q8TzmlNEte-32" value="" style="edgeStyle=orthogonalEdgeStyle;rounded=1;orthogonalLoop=1;jettySize=auto;endArrow=block;endFill=1;jumpStyle=gap;jumpSize=10;html=1;" parent="1" source="HyBdx4KYr_q8TzmlNEte-6" target="HyBdx4KYr_q8TzmlNEte-26" edge="1">
          <mxGeometry relative="1" as="geometry">
            <Array as="points">
              <mxPoint x="430" y="340" />
              <mxPoint x="430" y="320" />
            </Array>
          </mxGeometry>
        </mxCell>
        <mxCell id="HyBdx4KYr_q8TzmlNEte-6" value="Admin" style="shape=umlActor;verticalLabelPosition=bottom;verticalAlign=top;outlineConnect=0;html=1;whiteSpace=wrap;" parent="1" vertex="1">
          <mxGeometry x="480" y="310" width="30" height="60" as="geometry" />
        </mxCell>
        <mxCell id="HyBdx4KYr_q8TzmlNEte-11" value="Log in" style="ellipse;html=1;whiteSpace=wrap;" parent="1" vertex="1">
          <mxGeometry x="160" y="80" width="80" height="40" as="geometry" />
        </mxCell>
        <mxCell id="HyBdx4KYr_q8TzmlNEte-12" value="Log out" style="ellipse;html=1;whiteSpace=wrap;" parent="1" vertex="1">
          <mxGeometry x="340" y="40" width="80" height="40" as="geometry" />
        </mxCell>
        <mxCell id="HyBdx4KYr_q8TzmlNEte-14" value="Register" style="ellipse;html=1;whiteSpace=wrap;" parent="1" vertex="1">
          <mxGeometry x="200" y="130" width="80" height="40" as="geometry" />
        </mxCell>
        <mxCell id="HyBdx4KYr_q8TzmlNEte-15" value="Bikes management" style="ellipse;strokeWidth=1;html=1;whiteSpace=wrap;" parent="1" vertex="1">
          <mxGeometry x="180" y="190" width="120" height="40" as="geometry" />
        </mxCell>
        <mxCell id="HyBdx4KYr_q8TzmlNEte-26" value="Account management" style="ellipse;strokeWidth=1;html=1;whiteSpace=wrap;" parent="1" vertex="1">
          <mxGeometry x="294" y="290" width="100" height="40" as="geometry" />
        </mxCell>
        <mxCell id="HyBdx4KYr_q8TzmlNEte-30" value="Servising" style="ellipse;strokeWidth=1;html=1;whiteSpace=wrap;" parent="1" vertex="1">
          <mxGeometry x="300" y="140" width="100" height="40" as="geometry" />
        </mxCell>
        <mxCell id="HyBdx4KYr_q8TzmlNEte-34" value="Reporting" style="ellipse;strokeWidth=1;html=1;whiteSpace=wrap;" parent="1" vertex="1">
          <mxGeometry x="280" y="240" width="100" height="40" as="geometry" />
        </mxCell>
      </root>
    </mxGraphModel>
  </diagram>
  <diagram id="zJkt-2KwwEQ22w811lUK" name="UC - Bikes management">
    <mxGraphModel dx="1434" dy="836" grid="1" gridSize="10" guides="1" tooltips="1" connect="1" arrows="1" fold="1" page="1" pageScale="1" pageWidth="827" pageHeight="1169" math="0" shadow="0">
      <root>
        <mxCell id="0" />
        <mxCell id="1" parent="0" />
        <mxCell id="8QMlU4hmbphAGZrdZc3I-1" value="Bikes management" style="swimlane;whiteSpace=wrap;html=1;strokeWidth=1;rounded=1;" parent="1" vertex="1">
          <mxGeometry x="40" y="40" width="650" height="440" as="geometry" />
        </mxCell>
        <mxCell id="8QMlU4hmbphAGZrdZc3I-2" style="edgeStyle=orthogonalEdgeStyle;rounded=1;orthogonalLoop=1;jettySize=auto;html=1;endArrow=block;endFill=1;" parent="8QMlU4hmbphAGZrdZc3I-1" source="8QMlU4hmbphAGZrdZc3I-3" target="8QMlU4hmbphAGZrdZc3I-8" edge="1">
          <mxGeometry relative="1" as="geometry">
            <Array as="points">
              <mxPoint x="130" y="60" />
              <mxPoint x="130" y="60" />
            </Array>
          </mxGeometry>
        </mxCell>
        <mxCell id="8QMlU4hmbphAGZrdZc3I-3" value="Guest&lt;br&gt;(not logged in)" style="shape=umlActor;verticalLabelPosition=bottom;verticalAlign=top;html=1;outlineConnect=0;" parent="8QMlU4hmbphAGZrdZc3I-1" vertex="1">
          <mxGeometry x="50" y="40" width="30" height="60" as="geometry" />
        </mxCell>
        <mxCell id="8QMlU4hmbphAGZrdZc3I-4" style="edgeStyle=orthogonalEdgeStyle;rounded=1;orthogonalLoop=1;jettySize=auto;html=1;endArrow=block;endFill=1;" parent="8QMlU4hmbphAGZrdZc3I-1" source="8QMlU4hmbphAGZrdZc3I-6" target="8QMlU4hmbphAGZrdZc3I-8" edge="1">
          <mxGeometry relative="1" as="geometry">
            <Array as="points">
              <mxPoint x="150" y="190" />
              <mxPoint x="150" y="80" />
            </Array>
          </mxGeometry>
        </mxCell>
        <mxCell id="8QMlU4hmbphAGZrdZc3I-5" style="edgeStyle=orthogonalEdgeStyle;rounded=1;jumpStyle=gap;jumpSize=10;orthogonalLoop=1;jettySize=auto;html=1;fontSize=11;endArrow=block;endFill=1;" parent="8QMlU4hmbphAGZrdZc3I-1" source="8QMlU4hmbphAGZrdZc3I-6" target="8QMlU4hmbphAGZrdZc3I-14" edge="1">
          <mxGeometry relative="1" as="geometry">
            <Array as="points">
              <mxPoint x="220" y="190" />
              <mxPoint x="220" y="190" />
            </Array>
          </mxGeometry>
        </mxCell>
        <mxCell id="8QMlU4hmbphAGZrdZc3I-6" value="User&lt;br&gt;(logged in)" style="shape=umlActor;verticalLabelPosition=bottom;verticalAlign=top;html=1;outlineConnect=0;" parent="8QMlU4hmbphAGZrdZc3I-1" vertex="1">
          <mxGeometry x="50" y="160" width="30" height="60" as="geometry" />
        </mxCell>
        <mxCell id="8QMlU4hmbphAGZrdZc3I-7" value="&amp;lt;&amp;lt;extends&amp;gt;&amp;gt;" style="edgeStyle=orthogonalEdgeStyle;rounded=1;orthogonalLoop=1;jettySize=auto;html=1;endArrow=open;endFill=0;dashed=1;" parent="8QMlU4hmbphAGZrdZc3I-1" source="8QMlU4hmbphAGZrdZc3I-10" target="8QMlU4hmbphAGZrdZc3I-8" edge="1">
          <mxGeometry relative="1" as="geometry">
            <mxPoint x="370" y="140" as="sourcePoint" />
            <Array as="points">
              <mxPoint x="380" y="70" />
              <mxPoint x="380" y="70" />
            </Array>
          </mxGeometry>
        </mxCell>
        <mxCell id="8QMlU4hmbphAGZrdZc3I-8" value="Show bikes summary (bike grid)" style="ellipse;whiteSpace=wrap;html=1;fontSize=11;" parent="8QMlU4hmbphAGZrdZc3I-1" vertex="1">
          <mxGeometry x="170" y="50" width="130" height="40" as="geometry" />
        </mxCell>
        <mxCell id="8QMlU4hmbphAGZrdZc3I-9" value="&amp;lt;&amp;lt;include&amp;gt;&amp;gt;" style="edgeStyle=orthogonalEdgeStyle;rounded=1;jumpStyle=gap;jumpSize=10;orthogonalLoop=1;jettySize=auto;html=1;dashed=1;fontSize=11;endArrow=open;endFill=0;" parent="8QMlU4hmbphAGZrdZc3I-1" source="8QMlU4hmbphAGZrdZc3I-10" target="8QMlU4hmbphAGZrdZc3I-30" edge="1">
          <mxGeometry relative="1" as="geometry">
            <Array as="points">
              <mxPoint x="580" y="70" />
            </Array>
          </mxGeometry>
        </mxCell>
        <mxCell id="8QMlU4hmbphAGZrdZc3I-10" value="Display bike&#39;s properties" style="ellipse;whiteSpace=wrap;html=1;" parent="8QMlU4hmbphAGZrdZc3I-1" vertex="1">
          <mxGeometry x="400" y="50" width="120" height="40" as="geometry" />
        </mxCell>
        <mxCell id="8QMlU4hmbphAGZrdZc3I-11" value="&amp;lt;&amp;lt;include&amp;gt;&amp;gt;" style="edgeStyle=orthogonalEdgeStyle;rounded=1;jumpStyle=gap;jumpSize=10;orthogonalLoop=1;jettySize=auto;html=1;fontSize=11;endArrow=open;endFill=0;dashed=1;" parent="8QMlU4hmbphAGZrdZc3I-1" source="8QMlU4hmbphAGZrdZc3I-14" target="8QMlU4hmbphAGZrdZc3I-15" edge="1">
          <mxGeometry relative="1" as="geometry">
            <Array as="points">
              <mxPoint x="240" y="140" />
            </Array>
          </mxGeometry>
        </mxCell>
        <mxCell id="8QMlU4hmbphAGZrdZc3I-12" value="&amp;lt;&amp;lt;include&amp;gt;&amp;gt;" style="edgeStyle=orthogonalEdgeStyle;rounded=1;jumpStyle=gap;jumpSize=10;orthogonalLoop=1;jettySize=auto;html=1;dashed=1;fontSize=11;endArrow=open;endFill=0;" parent="8QMlU4hmbphAGZrdZc3I-1" source="8QMlU4hmbphAGZrdZc3I-14" target="8QMlU4hmbphAGZrdZc3I-16" edge="1">
          <mxGeometry relative="1" as="geometry" />
        </mxCell>
        <mxCell id="8QMlU4hmbphAGZrdZc3I-13" value="&amp;lt;&amp;lt;include&amp;gt;&amp;gt;" style="edgeStyle=orthogonalEdgeStyle;rounded=1;jumpStyle=gap;jumpSize=10;orthogonalLoop=1;jettySize=auto;html=1;dashed=1;fontSize=11;endArrow=open;endFill=0;" parent="8QMlU4hmbphAGZrdZc3I-1" source="8QMlU4hmbphAGZrdZc3I-14" target="8QMlU4hmbphAGZrdZc3I-17" edge="1">
          <mxGeometry relative="1" as="geometry">
            <Array as="points">
              <mxPoint x="240" y="240" />
            </Array>
          </mxGeometry>
        </mxCell>
        <mxCell id="8QMlU4hmbphAGZrdZc3I-14" value="Borrow bike" style="ellipse;whiteSpace=wrap;html=1;" parent="8QMlU4hmbphAGZrdZc3I-1" vertex="1">
          <mxGeometry x="190" y="170" width="100" height="40" as="geometry" />
        </mxCell>
        <mxCell id="8QMlU4hmbphAGZrdZc3I-15" value="Chose of the bike" style="ellipse;whiteSpace=wrap;html=1;" parent="8QMlU4hmbphAGZrdZc3I-1" vertex="1">
          <mxGeometry x="410" y="120" width="100" height="40" as="geometry" />
        </mxCell>
        <mxCell id="8QMlU4hmbphAGZrdZc3I-16" value="Input time of borrow" style="ellipse;whiteSpace=wrap;html=1;" parent="8QMlU4hmbphAGZrdZc3I-1" vertex="1">
          <mxGeometry x="410" y="170" width="100" height="40" as="geometry" />
        </mxCell>
        <mxCell id="8QMlU4hmbphAGZrdZc3I-17" value="Chose of the pay method" style="ellipse;whiteSpace=wrap;html=1;" parent="8QMlU4hmbphAGZrdZc3I-1" vertex="1">
          <mxGeometry x="410" y="220" width="100" height="40" as="geometry" />
        </mxCell>
        <mxCell id="8QMlU4hmbphAGZrdZc3I-18" style="edgeStyle=orthogonalEdgeStyle;rounded=1;jumpStyle=gap;jumpSize=10;orthogonalLoop=1;jettySize=auto;html=1;fontSize=11;endArrow=block;endFill=0;" parent="8QMlU4hmbphAGZrdZc3I-1" source="8QMlU4hmbphAGZrdZc3I-20" target="8QMlU4hmbphAGZrdZc3I-6" edge="1">
          <mxGeometry relative="1" as="geometry">
            <Array as="points">
              <mxPoint x="20" y="350" />
              <mxPoint x="20" y="190" />
            </Array>
          </mxGeometry>
        </mxCell>
        <mxCell id="8QMlU4hmbphAGZrdZc3I-19" style="edgeStyle=orthogonalEdgeStyle;rounded=1;jumpStyle=gap;jumpSize=10;orthogonalLoop=1;jettySize=auto;html=1;fontSize=11;endArrow=block;endFill=1;" parent="8QMlU4hmbphAGZrdZc3I-1" source="8QMlU4hmbphAGZrdZc3I-20" target="8QMlU4hmbphAGZrdZc3I-21" edge="1">
          <mxGeometry relative="1" as="geometry" />
        </mxCell>
        <mxCell id="8QMlU4hmbphAGZrdZc3I-20" value="Employee" style="shape=umlActor;verticalLabelPosition=bottom;verticalAlign=top;html=1;outlineConnect=0;" parent="8QMlU4hmbphAGZrdZc3I-1" vertex="1">
          <mxGeometry x="50" y="320" width="30" height="60" as="geometry" />
        </mxCell>
        <mxCell id="8QMlU4hmbphAGZrdZc3I-21" value="Display bikes" style="ellipse;whiteSpace=wrap;html=1;" parent="8QMlU4hmbphAGZrdZc3I-1" vertex="1">
          <mxGeometry x="170" y="330" width="100" height="40" as="geometry" />
        </mxCell>
        <mxCell id="8QMlU4hmbphAGZrdZc3I-22" value="&amp;lt;&amp;lt;extends&amp;gt;&amp;gt;" style="edgeStyle=orthogonalEdgeStyle;rounded=1;jumpStyle=gap;jumpSize=10;orthogonalLoop=1;jettySize=auto;html=1;fontSize=11;endArrow=open;endFill=0;dashed=1;" parent="8QMlU4hmbphAGZrdZc3I-1" source="8QMlU4hmbphAGZrdZc3I-23" target="8QMlU4hmbphAGZrdZc3I-21" edge="1">
          <mxGeometry relative="1" as="geometry" />
        </mxCell>
        <mxCell id="8QMlU4hmbphAGZrdZc3I-23" value="Add bike" style="ellipse;whiteSpace=wrap;html=1;" parent="8QMlU4hmbphAGZrdZc3I-1" vertex="1">
          <mxGeometry x="370" y="380" width="100" height="40" as="geometry" />
        </mxCell>
        <mxCell id="8QMlU4hmbphAGZrdZc3I-24" value="&amp;lt;&amp;lt;extends&amp;gt;&amp;gt;" style="edgeStyle=orthogonalEdgeStyle;rounded=1;jumpStyle=gap;jumpSize=10;orthogonalLoop=1;jettySize=auto;html=1;fontSize=11;endArrow=open;endFill=0;dashed=1;" parent="8QMlU4hmbphAGZrdZc3I-1" source="8QMlU4hmbphAGZrdZc3I-25" target="8QMlU4hmbphAGZrdZc3I-21" edge="1">
          <mxGeometry relative="1" as="geometry" />
        </mxCell>
        <mxCell id="8QMlU4hmbphAGZrdZc3I-25" value="Delete bike" style="ellipse;whiteSpace=wrap;html=1;" parent="8QMlU4hmbphAGZrdZc3I-1" vertex="1">
          <mxGeometry x="370" y="280" width="100" height="40" as="geometry" />
        </mxCell>
        <mxCell id="8QMlU4hmbphAGZrdZc3I-26" value="&amp;lt;&amp;lt;extends&amp;gt;&amp;gt;" style="edgeStyle=orthogonalEdgeStyle;rounded=1;jumpStyle=gap;jumpSize=10;orthogonalLoop=1;jettySize=auto;html=1;fontSize=11;endArrow=open;endFill=0;dashed=1;" parent="8QMlU4hmbphAGZrdZc3I-1" source="8QMlU4hmbphAGZrdZc3I-27" target="8QMlU4hmbphAGZrdZc3I-21" edge="1">
          <mxGeometry relative="1" as="geometry" />
        </mxCell>
        <mxCell id="8QMlU4hmbphAGZrdZc3I-27" value="Modify bike" style="ellipse;whiteSpace=wrap;html=1;" parent="8QMlU4hmbphAGZrdZc3I-1" vertex="1">
          <mxGeometry x="370" y="330" width="100" height="40" as="geometry" />
        </mxCell>
        <mxCell id="8QMlU4hmbphAGZrdZc3I-28" value="&amp;lt;&amp;lt;extends&amp;gt;&amp;gt;" style="edgeStyle=orthogonalEdgeStyle;rounded=1;jumpStyle=gap;jumpSize=10;orthogonalLoop=1;jettySize=auto;html=1;dashed=1;fontSize=11;endArrow=open;endFill=0;" parent="8QMlU4hmbphAGZrdZc3I-1" source="8QMlU4hmbphAGZrdZc3I-29" target="8QMlU4hmbphAGZrdZc3I-27" edge="1">
          <mxGeometry relative="1" as="geometry">
            <Array as="points">
              <mxPoint x="540" y="350" />
            </Array>
          </mxGeometry>
        </mxCell>
        <mxCell id="8QMlU4hmbphAGZrdZc3I-29" value="Modify availability" style="ellipse;whiteSpace=wrap;html=1;" parent="8QMlU4hmbphAGZrdZc3I-1" vertex="1">
          <mxGeometry x="490" y="280" width="100" height="40" as="geometry" />
        </mxCell>
        <mxCell id="8QMlU4hmbphAGZrdZc3I-30" value="Display bike&#39;s&lt;br&gt;availability" style="ellipse;whiteSpace=wrap;html=1;" parent="8QMlU4hmbphAGZrdZc3I-1" vertex="1">
          <mxGeometry x="530" y="90" width="100" height="40" as="geometry" />
        </mxCell>
      </root>
    </mxGraphModel>
  </diagram>
  <diagram id="rzPM_V4aqx5ikZvYrMCg" name="UC - Account management">
    <mxGraphModel dx="1036" dy="606" grid="1" gridSize="10" guides="1" tooltips="1" connect="1" arrows="1" fold="1" page="1" pageScale="1" pageWidth="827" pageHeight="1169" math="0" shadow="0">
      <root>
        <mxCell id="0" />
        <mxCell id="1" parent="0" />
        <mxCell id="tjpVJwRqGBKuAYZ-r7i4-1" value="Account management" style="swimlane;whiteSpace=wrap;html=1;strokeWidth=1;rounded=1;" parent="1" vertex="1">
          <mxGeometry x="40" y="40" width="510" height="330" as="geometry" />
        </mxCell>
        <mxCell id="tjpVJwRqGBKuAYZ-r7i4-2" style="edgeStyle=orthogonalEdgeStyle;rounded=1;jumpStyle=gap;jumpSize=10;orthogonalLoop=1;jettySize=auto;html=1;fontSize=11;endArrow=block;endFill=1;" parent="tjpVJwRqGBKuAYZ-r7i4-1" source="tjpVJwRqGBKuAYZ-r7i4-3" target="tjpVJwRqGBKuAYZ-r7i4-23" edge="1">
          <mxGeometry relative="1" as="geometry">
            <Array as="points">
              <mxPoint x="170" y="80" />
              <mxPoint x="170" y="80" />
            </Array>
          </mxGeometry>
        </mxCell>
        <mxCell id="tjpVJwRqGBKuAYZ-r7i4-3" value="User&lt;br&gt;(logged in)" style="shape=umlActor;verticalLabelPosition=bottom;verticalAlign=top;html=1;outlineConnect=0;" parent="tjpVJwRqGBKuAYZ-r7i4-1" vertex="1">
          <mxGeometry x="50" y="50" width="30" height="60" as="geometry" />
        </mxCell>
        <mxCell id="tjpVJwRqGBKuAYZ-r7i4-4" value="&amp;lt;&amp;lt;extends&amp;gt;&amp;gt;" style="edgeStyle=orthogonalEdgeStyle;rounded=1;jumpStyle=gap;jumpSize=10;orthogonalLoop=1;jettySize=auto;html=1;dashed=1;fontSize=11;endArrow=open;endFill=0;" parent="tjpVJwRqGBKuAYZ-r7i4-1" source="tjpVJwRqGBKuAYZ-r7i4-5" target="tjpVJwRqGBKuAYZ-r7i4-6" edge="1">
          <mxGeometry relative="1" as="geometry">
            <Array as="points">
              <mxPoint x="190" y="220" />
            </Array>
          </mxGeometry>
        </mxCell>
        <mxCell id="tjpVJwRqGBKuAYZ-r7i4-5" value="Change user&#39;s role" style="ellipse;whiteSpace=wrap;html=1;fontSize=11;" parent="tjpVJwRqGBKuAYZ-r7i4-1" vertex="1">
          <mxGeometry x="260" y="200" width="130" height="40" as="geometry" />
        </mxCell>
        <mxCell id="tjpVJwRqGBKuAYZ-r7i4-6" value="Display all users" style="ellipse;whiteSpace=wrap;html=1;" parent="tjpVJwRqGBKuAYZ-r7i4-1" vertex="1">
          <mxGeometry x="120" y="240" width="100" height="40" as="geometry" />
        </mxCell>
        <mxCell id="tjpVJwRqGBKuAYZ-r7i4-7" style="edgeStyle=orthogonalEdgeStyle;rounded=1;jumpStyle=gap;jumpSize=10;orthogonalLoop=1;jettySize=auto;html=1;fontSize=11;endArrow=block;endFill=0;" parent="tjpVJwRqGBKuAYZ-r7i4-1" source="tjpVJwRqGBKuAYZ-r7i4-9" target="tjpVJwRqGBKuAYZ-r7i4-3" edge="1">
          <mxGeometry relative="1" as="geometry">
            <Array as="points">
              <mxPoint x="20" y="270" />
              <mxPoint x="20" y="80" />
            </Array>
          </mxGeometry>
        </mxCell>
        <mxCell id="tjpVJwRqGBKuAYZ-r7i4-8" style="edgeStyle=orthogonalEdgeStyle;rounded=1;jumpStyle=gap;jumpSize=10;orthogonalLoop=1;jettySize=auto;html=1;fontSize=11;endArrow=block;endFill=1;" parent="tjpVJwRqGBKuAYZ-r7i4-1" source="tjpVJwRqGBKuAYZ-r7i4-9" target="tjpVJwRqGBKuAYZ-r7i4-6" edge="1">
          <mxGeometry relative="1" as="geometry" />
        </mxCell>
        <mxCell id="tjpVJwRqGBKuAYZ-r7i4-9" value="Admin" style="shape=umlActor;verticalLabelPosition=bottom;verticalAlign=top;html=1;outlineConnect=0;" parent="tjpVJwRqGBKuAYZ-r7i4-1" vertex="1">
          <mxGeometry x="50" y="230" width="30" height="60" as="geometry" />
        </mxCell>
        <mxCell id="tjpVJwRqGBKuAYZ-r7i4-10" value="&amp;lt;&amp;lt;extends&amp;gt;&amp;gt;" style="edgeStyle=orthogonalEdgeStyle;rounded=1;jumpStyle=gap;jumpSize=10;orthogonalLoop=1;jettySize=auto;html=1;dashed=1;fontSize=11;endArrow=open;endFill=0;" parent="tjpVJwRqGBKuAYZ-r7i4-1" source="tjpVJwRqGBKuAYZ-r7i4-11" target="tjpVJwRqGBKuAYZ-r7i4-23" edge="1">
          <mxGeometry relative="1" as="geometry">
            <Array as="points">
              <mxPoint x="320" y="60" />
              <mxPoint x="240" y="60" />
              <mxPoint x="240" y="70" />
            </Array>
          </mxGeometry>
        </mxCell>
        <mxCell id="tjpVJwRqGBKuAYZ-r7i4-11" value="Change password" style="ellipse;whiteSpace=wrap;html=1;" parent="tjpVJwRqGBKuAYZ-r7i4-1" vertex="1">
          <mxGeometry x="270" y="70" width="100" height="40" as="geometry" />
        </mxCell>
        <mxCell id="tjpVJwRqGBKuAYZ-r7i4-12" value="&amp;lt;&amp;lt;extends&amp;gt;&amp;gt;" style="edgeStyle=orthogonalEdgeStyle;rounded=1;jumpStyle=gap;jumpSize=10;orthogonalLoop=1;jettySize=auto;html=1;fontSize=11;endArrow=open;endFill=0;dashed=1;" parent="tjpVJwRqGBKuAYZ-r7i4-1" source="tjpVJwRqGBKuAYZ-r7i4-13" target="tjpVJwRqGBKuAYZ-r7i4-23" edge="1">
          <mxGeometry relative="1" as="geometry">
            <Array as="points">
              <mxPoint x="430" y="40" />
              <mxPoint x="170" y="40" />
            </Array>
          </mxGeometry>
        </mxCell>
        <mxCell id="tjpVJwRqGBKuAYZ-r7i4-13" value="Change username" style="ellipse;whiteSpace=wrap;html=1;" parent="tjpVJwRqGBKuAYZ-r7i4-1" vertex="1">
          <mxGeometry x="380" y="70" width="100" height="40" as="geometry" />
        </mxCell>
        <mxCell id="tjpVJwRqGBKuAYZ-r7i4-14" value="&amp;lt;&amp;lt;extends&amp;gt;&amp;gt;" style="edgeStyle=orthogonalEdgeStyle;rounded=1;jumpStyle=gap;jumpSize=10;orthogonalLoop=1;jettySize=auto;html=1;dashed=1;fontSize=11;endArrow=open;endFill=0;" parent="tjpVJwRqGBKuAYZ-r7i4-1" source="tjpVJwRqGBKuAYZ-r7i4-15" target="tjpVJwRqGBKuAYZ-r7i4-23" edge="1">
          <mxGeometry relative="1" as="geometry">
            <Array as="points">
              <mxPoint x="240" y="140" />
              <mxPoint x="240" y="90" />
            </Array>
          </mxGeometry>
        </mxCell>
        <mxCell id="tjpVJwRqGBKuAYZ-r7i4-15" value="Change email" style="ellipse;whiteSpace=wrap;html=1;" parent="tjpVJwRqGBKuAYZ-r7i4-1" vertex="1">
          <mxGeometry x="270" y="120" width="100" height="40" as="geometry" />
        </mxCell>
        <mxCell id="tjpVJwRqGBKuAYZ-r7i4-16" value="&amp;lt;&amp;lt;extends&amp;gt;&amp;gt;" style="edgeStyle=orthogonalEdgeStyle;rounded=1;jumpStyle=gap;jumpSize=10;orthogonalLoop=1;jettySize=auto;html=1;fontSize=11;endArrow=open;endFill=0;dashed=1;" parent="tjpVJwRqGBKuAYZ-r7i4-1" source="tjpVJwRqGBKuAYZ-r7i4-17" target="tjpVJwRqGBKuAYZ-r7i4-23" edge="1">
          <mxGeometry relative="1" as="geometry">
            <Array as="points">
              <mxPoint x="440" y="180" />
              <mxPoint x="190" y="180" />
            </Array>
          </mxGeometry>
        </mxCell>
        <mxCell id="tjpVJwRqGBKuAYZ-r7i4-17" value="Deactivate account" style="ellipse;whiteSpace=wrap;html=1;" parent="tjpVJwRqGBKuAYZ-r7i4-1" vertex="1">
          <mxGeometry x="390" y="120" width="100" height="40" as="geometry" />
        </mxCell>
        <mxCell id="tjpVJwRqGBKuAYZ-r7i4-18" value="&amp;lt;&amp;lt;extends&amp;gt;&amp;gt;" style="edgeStyle=orthogonalEdgeStyle;rounded=1;jumpStyle=gap;jumpSize=10;orthogonalLoop=1;jettySize=auto;html=1;dashed=1;fontSize=11;endArrow=open;endFill=0;" parent="tjpVJwRqGBKuAYZ-r7i4-1" source="tjpVJwRqGBKuAYZ-r7i4-19" target="tjpVJwRqGBKuAYZ-r7i4-6" edge="1">
          <mxGeometry relative="1" as="geometry">
            <Array as="points">
              <mxPoint x="170" y="300" />
            </Array>
          </mxGeometry>
        </mxCell>
        <mxCell id="tjpVJwRqGBKuAYZ-r7i4-19" value="Create user" style="ellipse;whiteSpace=wrap;html=1;" parent="tjpVJwRqGBKuAYZ-r7i4-1" vertex="1">
          <mxGeometry x="270" y="280" width="100" height="40" as="geometry" />
        </mxCell>
        <mxCell id="tjpVJwRqGBKuAYZ-r7i4-20" value="&amp;lt;&amp;lt;extends&amp;gt;&amp;gt;" style="edgeStyle=orthogonalEdgeStyle;rounded=1;jumpStyle=gap;jumpSize=10;orthogonalLoop=1;jettySize=auto;html=1;dashed=1;fontSize=11;endArrow=open;endFill=0;" parent="tjpVJwRqGBKuAYZ-r7i4-1" source="tjpVJwRqGBKuAYZ-r7i4-21" target="tjpVJwRqGBKuAYZ-r7i4-6" edge="1">
          <mxGeometry relative="1" as="geometry" />
        </mxCell>
        <mxCell id="tjpVJwRqGBKuAYZ-r7i4-21" value="Remove user" style="ellipse;whiteSpace=wrap;html=1;" parent="tjpVJwRqGBKuAYZ-r7i4-1" vertex="1">
          <mxGeometry x="380" y="240" width="100" height="40" as="geometry" />
        </mxCell>
        <mxCell id="tjpVJwRqGBKuAYZ-r7i4-22" value="&amp;lt;&amp;lt;extends&amp;gt;&amp;gt;" style="edgeStyle=orthogonalEdgeStyle;rounded=1;jumpStyle=gap;jumpSize=10;orthogonalLoop=1;jettySize=auto;html=1;dashed=1;fontSize=11;endArrow=open;endFill=0;" parent="tjpVJwRqGBKuAYZ-r7i4-1" source="tjpVJwRqGBKuAYZ-r7i4-23" target="tjpVJwRqGBKuAYZ-r7i4-6" edge="1">
          <mxGeometry relative="1" as="geometry">
            <Array as="points">
              <mxPoint x="150" y="170" />
              <mxPoint x="150" y="170" />
            </Array>
          </mxGeometry>
        </mxCell>
        <mxCell id="tjpVJwRqGBKuAYZ-r7i4-23" value="Display account info" style="ellipse;whiteSpace=wrap;html=1;" parent="tjpVJwRqGBKuAYZ-r7i4-1" vertex="1">
          <mxGeometry x="120" y="60" width="100" height="40" as="geometry" />
        </mxCell>
      </root>
    </mxGraphModel>
  </diagram>
  <diagram id="n6YLNe28xyIKiB_QX3Rc" name="UC - Servicing">
    <mxGraphModel dx="794" dy="724" grid="1" gridSize="10" guides="1" tooltips="1" connect="1" arrows="1" fold="1" page="1" pageScale="1" pageWidth="827" pageHeight="1169" math="0" shadow="0">
      <root>
        <mxCell id="0" />
        <mxCell id="1" parent="0" />
        <mxCell id="gvismzAmYxeGRYhmtnsW-1" value="Servicing" style="swimlane;whiteSpace=wrap;html=1;strokeWidth=1;rounded=1;" parent="1" vertex="1">
          <mxGeometry x="40" y="40" width="510" height="350" as="geometry" />
        </mxCell>
        <mxCell id="gvismzAmYxeGRYhmtnsW-2" style="edgeStyle=orthogonalEdgeStyle;rounded=1;jumpStyle=gap;jumpSize=10;orthogonalLoop=1;jettySize=auto;html=1;fontSize=11;endArrow=block;endFill=1;" parent="gvismzAmYxeGRYhmtnsW-1" source="gvismzAmYxeGRYhmtnsW-4" target="gvismzAmYxeGRYhmtnsW-5" edge="1">
          <mxGeometry relative="1" as="geometry">
            <Array as="points">
              <mxPoint x="80" y="190" />
              <mxPoint x="80" y="110" />
            </Array>
          </mxGeometry>
        </mxCell>
        <mxCell id="gvismzAmYxeGRYhmtnsW-3" style="edgeStyle=orthogonalEdgeStyle;rounded=1;jumpStyle=gap;jumpSize=10;orthogonalLoop=1;jettySize=auto;html=1;fontSize=11;endArrow=open;endFill=0;" parent="gvismzAmYxeGRYhmtnsW-1" source="gvismzAmYxeGRYhmtnsW-4" target="gvismzAmYxeGRYhmtnsW-12" edge="1">
          <mxGeometry relative="1" as="geometry">
            <Array as="points">
              <mxPoint x="80" y="190" />
              <mxPoint x="80" y="260" />
            </Array>
          </mxGeometry>
        </mxCell>
        <mxCell id="gvismzAmYxeGRYhmtnsW-4" value="Employee" style="shape=umlActor;verticalLabelPosition=bottom;verticalAlign=top;html=1;outlineConnect=0;" parent="gvismzAmYxeGRYhmtnsW-1" vertex="1">
          <mxGeometry x="20" y="160" width="30" height="60" as="geometry" />
        </mxCell>
        <mxCell id="gvismzAmYxeGRYhmtnsW-5" value="Display records about bike inspections" style="ellipse;whiteSpace=wrap;html=1;" parent="gvismzAmYxeGRYhmtnsW-1" vertex="1">
          <mxGeometry x="100" y="90" width="160" height="40" as="geometry" />
        </mxCell>
        <mxCell id="gvismzAmYxeGRYhmtnsW-6" value="&amp;lt;&amp;lt;extends&amp;gt;&amp;gt;" style="edgeStyle=orthogonalEdgeStyle;rounded=1;jumpStyle=gap;jumpSize=10;orthogonalLoop=1;jettySize=auto;html=1;fontSize=11;endArrow=open;endFill=0;dashed=1;" parent="gvismzAmYxeGRYhmtnsW-1" source="gvismzAmYxeGRYhmtnsW-7" target="gvismzAmYxeGRYhmtnsW-5" edge="1">
          <mxGeometry relative="1" as="geometry" />
        </mxCell>
        <mxCell id="gvismzAmYxeGRYhmtnsW-7" value="Add inspection record" style="ellipse;whiteSpace=wrap;html=1;" parent="gvismzAmYxeGRYhmtnsW-1" vertex="1">
          <mxGeometry x="350" y="40" width="110" height="40" as="geometry" />
        </mxCell>
        <mxCell id="gvismzAmYxeGRYhmtnsW-8" value="&amp;lt;&amp;lt;extends&amp;gt;&amp;gt;" style="edgeStyle=orthogonalEdgeStyle;rounded=1;jumpStyle=gap;jumpSize=10;orthogonalLoop=1;jettySize=auto;html=1;fontSize=11;endArrow=open;endFill=0;dashed=1;" parent="gvismzAmYxeGRYhmtnsW-1" source="gvismzAmYxeGRYhmtnsW-9" target="gvismzAmYxeGRYhmtnsW-5" edge="1">
          <mxGeometry relative="1" as="geometry" />
        </mxCell>
        <mxCell id="gvismzAmYxeGRYhmtnsW-9" value="Delete inspection record" style="ellipse;whiteSpace=wrap;html=1;" parent="gvismzAmYxeGRYhmtnsW-1" vertex="1">
          <mxGeometry x="360" y="90" width="130" height="40" as="geometry" />
        </mxCell>
        <mxCell id="gvismzAmYxeGRYhmtnsW-10" value="&amp;lt;&amp;lt;extends&amp;gt;&amp;gt;" style="edgeStyle=orthogonalEdgeStyle;rounded=1;jumpStyle=gap;jumpSize=10;orthogonalLoop=1;jettySize=auto;html=1;fontSize=11;endArrow=open;endFill=0;dashed=1;" parent="gvismzAmYxeGRYhmtnsW-1" source="gvismzAmYxeGRYhmtnsW-11" target="gvismzAmYxeGRYhmtnsW-5" edge="1">
          <mxGeometry relative="1" as="geometry">
            <Array as="points">
              <mxPoint x="180" y="160" />
            </Array>
          </mxGeometry>
        </mxCell>
        <mxCell id="gvismzAmYxeGRYhmtnsW-11" value="Modify inspection record" style="ellipse;whiteSpace=wrap;html=1;" parent="gvismzAmYxeGRYhmtnsW-1" vertex="1">
          <mxGeometry x="351" y="140" width="109" height="40" as="geometry" />
        </mxCell>
        <mxCell id="gvismzAmYxeGRYhmtnsW-12" value="Display servising records" style="ellipse;whiteSpace=wrap;html=1;" parent="gvismzAmYxeGRYhmtnsW-1" vertex="1">
          <mxGeometry x="100" y="240" width="160" height="40" as="geometry" />
        </mxCell>
        <mxCell id="gvismzAmYxeGRYhmtnsW-13" value="&amp;lt;&amp;lt;extends&amp;gt;&amp;gt;" style="edgeStyle=orthogonalEdgeStyle;rounded=1;jumpStyle=gap;jumpSize=10;orthogonalLoop=1;jettySize=auto;html=1;fontSize=11;endArrow=open;endFill=0;dashed=1;" parent="gvismzAmYxeGRYhmtnsW-1" source="gvismzAmYxeGRYhmtnsW-14" edge="1">
          <mxGeometry relative="1" as="geometry">
            <mxPoint x="180" y="240" as="targetPoint" />
          </mxGeometry>
        </mxCell>
        <mxCell id="gvismzAmYxeGRYhmtnsW-14" value="Add servising record" style="ellipse;whiteSpace=wrap;html=1;" parent="gvismzAmYxeGRYhmtnsW-1" vertex="1">
          <mxGeometry x="350" y="190" width="110" height="40" as="geometry" />
        </mxCell>
        <mxCell id="gvismzAmYxeGRYhmtnsW-15" value="&amp;lt;&amp;lt;extends&amp;gt;&amp;gt;" style="edgeStyle=orthogonalEdgeStyle;rounded=1;jumpStyle=gap;jumpSize=10;orthogonalLoop=1;jettySize=auto;html=1;fontSize=11;endArrow=open;endFill=0;dashed=1;" parent="gvismzAmYxeGRYhmtnsW-1" source="gvismzAmYxeGRYhmtnsW-16" edge="1">
          <mxGeometry relative="1" as="geometry">
            <mxPoint x="260" y="260" as="targetPoint" />
          </mxGeometry>
        </mxCell>
        <mxCell id="gvismzAmYxeGRYhmtnsW-16" value="Delete servising record" style="ellipse;whiteSpace=wrap;html=1;" parent="gvismzAmYxeGRYhmtnsW-1" vertex="1">
          <mxGeometry x="360" y="240" width="120" height="40" as="geometry" />
        </mxCell>
        <mxCell id="gvismzAmYxeGRYhmtnsW-17" value="&amp;lt;&amp;lt;extends&amp;gt;&amp;gt;" style="edgeStyle=orthogonalEdgeStyle;rounded=1;jumpStyle=gap;jumpSize=10;orthogonalLoop=1;jettySize=auto;html=1;fontSize=11;endArrow=open;endFill=0;dashed=1;" parent="gvismzAmYxeGRYhmtnsW-1" source="gvismzAmYxeGRYhmtnsW-18" edge="1">
          <mxGeometry relative="1" as="geometry">
            <mxPoint x="180" y="280" as="targetPoint" />
            <Array as="points">
              <mxPoint x="180" y="310" />
            </Array>
          </mxGeometry>
        </mxCell>
        <mxCell id="gvismzAmYxeGRYhmtnsW-18" value="Modify servising record" style="ellipse;whiteSpace=wrap;html=1;" parent="gvismzAmYxeGRYhmtnsW-1" vertex="1">
          <mxGeometry x="351" y="290" width="109" height="40" as="geometry" />
        </mxCell>
      </root>
    </mxGraphModel>
  </diagram>
  <diagram id="tnLssEfm-kGQ8L3Jt6uX" name="UC - Reporting">
    <mxGraphModel dx="1434" dy="836" grid="1" gridSize="10" guides="1" tooltips="1" connect="1" arrows="1" fold="1" page="1" pageScale="1" pageWidth="827" pageHeight="1169" math="0" shadow="0">
      <root>
        <mxCell id="0" />
        <mxCell id="1" parent="0" />
        <mxCell id="dArJw79UzN2PDC87uyud-1" value="Reporting" style="swimlane;whiteSpace=wrap;html=1;strokeWidth=1;rounded=1;" parent="1" vertex="1">
          <mxGeometry x="40" y="40" width="680" height="220" as="geometry" />
        </mxCell>
        <mxCell id="dArJw79UzN2PDC87uyud-2" style="edgeStyle=orthogonalEdgeStyle;rounded=1;jumpStyle=gap;jumpSize=10;orthogonalLoop=1;jettySize=auto;html=1;fontSize=11;endArrow=block;endFill=1;" parent="dArJw79UzN2PDC87uyud-1" source="dArJw79UzN2PDC87uyud-3" target="dArJw79UzN2PDC87uyud-7" edge="1">
          <mxGeometry relative="1" as="geometry" />
        </mxCell>
        <mxCell id="dArJw79UzN2PDC87uyud-3" value="Employee" style="shape=umlActor;verticalLabelPosition=bottom;verticalAlign=top;html=1;outlineConnect=0;" parent="dArJw79UzN2PDC87uyud-1" vertex="1">
          <mxGeometry x="27" y="90" width="30" height="60" as="geometry" />
        </mxCell>
        <mxCell id="dArJw79UzN2PDC87uyud-4" value="&amp;lt;&amp;lt;include&amp;gt;&amp;gt;" style="edgeStyle=orthogonalEdgeStyle;rounded=1;jumpStyle=gap;jumpSize=10;orthogonalLoop=1;jettySize=auto;html=1;fontSize=11;endArrow=open;endFill=0;dashed=1;" parent="dArJw79UzN2PDC87uyud-1" source="dArJw79UzN2PDC87uyud-7" target="dArJw79UzN2PDC87uyud-10" edge="1">
          <mxGeometry relative="1" as="geometry">
            <Array as="points">
              <mxPoint x="175" y="180" />
            </Array>
          </mxGeometry>
        </mxCell>
        <mxCell id="dArJw79UzN2PDC87uyud-5" value="&amp;lt;&amp;lt;include&amp;gt;&amp;gt;" style="edgeStyle=orthogonalEdgeStyle;rounded=1;jumpStyle=gap;jumpSize=10;orthogonalLoop=1;jettySize=auto;html=1;fontSize=11;endArrow=open;endFill=0;dashed=1;" parent="dArJw79UzN2PDC87uyud-1" source="dArJw79UzN2PDC87uyud-7" target="dArJw79UzN2PDC87uyud-8" edge="1">
          <mxGeometry relative="1" as="geometry" />
        </mxCell>
        <mxCell id="dArJw79UzN2PDC87uyud-6" value="&amp;lt;&amp;lt;include&amp;gt;&amp;gt;" style="edgeStyle=orthogonalEdgeStyle;rounded=1;jumpStyle=gap;jumpSize=10;orthogonalLoop=1;jettySize=auto;html=1;fontSize=11;endArrow=open;endFill=0;dashed=1;" parent="dArJw79UzN2PDC87uyud-1" source="dArJw79UzN2PDC87uyud-7" target="dArJw79UzN2PDC87uyud-9" edge="1">
          <mxGeometry relative="1" as="geometry">
            <Array as="points">
              <mxPoint x="175" y="60" />
            </Array>
          </mxGeometry>
        </mxCell>
        <mxCell id="dArJw79UzN2PDC87uyud-7" value="Display reporting page" style="ellipse;whiteSpace=wrap;html=1;" parent="dArJw79UzN2PDC87uyud-1" vertex="1">
          <mxGeometry x="120" y="100" width="110" height="40" as="geometry" />
        </mxCell>
        <mxCell id="dArJw79UzN2PDC87uyud-8" value="Income/outcome summary" style="ellipse;whiteSpace=wrap;html=1;" parent="dArJw79UzN2PDC87uyud-1" vertex="1">
          <mxGeometry x="320" y="100" width="120" height="40" as="geometry" />
        </mxCell>
        <mxCell id="dArJw79UzN2PDC87uyud-9" value="Display the number of bikes rented in period" style="ellipse;whiteSpace=wrap;html=1;" parent="dArJw79UzN2PDC87uyud-1" vertex="1">
          <mxGeometry x="270" y="40" width="150" height="40" as="geometry" />
        </mxCell>
        <mxCell id="dArJw79UzN2PDC87uyud-10" value="Most rented bikes leaderboard" style="ellipse;whiteSpace=wrap;html=1;" parent="dArJw79UzN2PDC87uyud-1" vertex="1">
          <mxGeometry x="290" y="160" width="120" height="40" as="geometry" />
        </mxCell>
        <mxCell id="dArJw79UzN2PDC87uyud-11" value="&amp;lt;&amp;lt;extend&amp;gt;&amp;gt;" style="edgeStyle=orthogonalEdgeStyle;rounded=1;jumpStyle=gap;jumpSize=10;orthogonalLoop=1;jettySize=auto;html=1;dashed=1;fontSize=11;endArrow=open;endFill=0;" parent="dArJw79UzN2PDC87uyud-1" source="dArJw79UzN2PDC87uyud-12" target="dArJw79UzN2PDC87uyud-8" edge="1">
          <mxGeometry relative="1" as="geometry" />
        </mxCell>
        <mxCell id="dArJw79UzN2PDC87uyud-12" value="Choose period" style="ellipse;whiteSpace=wrap;html=1;" parent="dArJw79UzN2PDC87uyud-1" vertex="1">
          <mxGeometry x="520" y="100" width="120" height="40" as="geometry" />
        </mxCell>
      </root>
    </mxGraphModel>
  </diagram>
  <diagram id="kJpIg7eZvDvNBk01yxzz" name="ER Diagram">
    <mxGraphModel dx="2245" dy="1989" grid="1" gridSize="10" guides="1" tooltips="1" connect="1" arrows="1" fold="1" page="1" pageScale="1" pageWidth="827" pageHeight="1169" math="0" shadow="0">
      <root>
        <mxCell id="0" />
        <mxCell id="1" parent="0" />
        <mxCell id="tJjoTh5x9sIFmA15xVmD-71" value="bikes" style="shape=table;startSize=30;container=1;collapsible=1;childLayout=tableLayout;fixedRows=1;rowLines=0;fontStyle=1;align=center;resizeLast=1;html=1;rounded=1;" parent="1" vertex="1">
          <mxGeometry x="80" y="-120" width="160" height="360" as="geometry" />
        </mxCell>
        <mxCell id="tJjoTh5x9sIFmA15xVmD-72" value="" style="shape=tableRow;horizontal=0;startSize=0;swimlaneHead=0;swimlaneBody=0;fillColor=none;collapsible=0;dropTarget=0;points=[[0,0.5],[1,0.5]];portConstraint=eastwest;top=0;left=0;right=0;bottom=1;html=1;" parent="tJjoTh5x9sIFmA15xVmD-71" vertex="1">
          <mxGeometry y="30" width="160" height="30" as="geometry" />
        </mxCell>
        <mxCell id="tJjoTh5x9sIFmA15xVmD-73" value="PK" style="shape=partialRectangle;connectable=0;fillColor=none;top=0;left=0;bottom=0;right=0;fontStyle=1;overflow=hidden;html=1;" parent="tJjoTh5x9sIFmA15xVmD-72" vertex="1">
          <mxGeometry width="30" height="30" as="geometry">
            <mxRectangle width="30" height="30" as="alternateBounds" />
          </mxGeometry>
        </mxCell>
        <mxCell id="tJjoTh5x9sIFmA15xVmD-74" value="bike_id" style="shape=partialRectangle;connectable=0;fillColor=none;top=0;left=0;bottom=0;right=0;align=left;spacingLeft=6;fontStyle=5;overflow=hidden;html=1;" parent="tJjoTh5x9sIFmA15xVmD-72" vertex="1">
          <mxGeometry x="30" width="130" height="30" as="geometry">
            <mxRectangle width="130" height="30" as="alternateBounds" />
          </mxGeometry>
        </mxCell>
        <mxCell id="tJjoTh5x9sIFmA15xVmD-75" value="" style="shape=tableRow;horizontal=0;startSize=0;swimlaneHead=0;swimlaneBody=0;fillColor=none;collapsible=0;dropTarget=0;points=[[0,0.5],[1,0.5]];portConstraint=eastwest;top=0;left=0;right=0;bottom=0;html=1;" parent="tJjoTh5x9sIFmA15xVmD-71" vertex="1">
          <mxGeometry y="60" width="160" height="30" as="geometry" />
        </mxCell>
        <mxCell id="tJjoTh5x9sIFmA15xVmD-76" value="" style="shape=partialRectangle;connectable=0;fillColor=none;top=0;left=0;bottom=0;right=0;editable=1;overflow=hidden;html=1;fontStyle=0" parent="tJjoTh5x9sIFmA15xVmD-75" vertex="1">
          <mxGeometry width="30" height="30" as="geometry">
            <mxRectangle width="30" height="30" as="alternateBounds" />
          </mxGeometry>
        </mxCell>
        <mxCell id="tJjoTh5x9sIFmA15xVmD-77" value="name" style="shape=partialRectangle;connectable=0;fillColor=none;top=0;left=0;bottom=0;right=0;align=left;spacingLeft=6;overflow=hidden;html=1;" parent="tJjoTh5x9sIFmA15xVmD-75" vertex="1">
          <mxGeometry x="30" width="130" height="30" as="geometry">
            <mxRectangle width="130" height="30" as="alternateBounds" />
          </mxGeometry>
        </mxCell>
        <mxCell id="tJjoTh5x9sIFmA15xVmD-78" value="" style="shape=tableRow;horizontal=0;startSize=0;swimlaneHead=0;swimlaneBody=0;fillColor=none;collapsible=0;dropTarget=0;points=[[0,0.5],[1,0.5]];portConstraint=eastwest;top=0;left=0;right=0;bottom=0;html=1;" parent="tJjoTh5x9sIFmA15xVmD-71" vertex="1">
          <mxGeometry y="90" width="160" height="30" as="geometry" />
        </mxCell>
        <mxCell id="tJjoTh5x9sIFmA15xVmD-79" value="" style="shape=partialRectangle;connectable=0;fillColor=none;top=0;left=0;bottom=0;right=0;editable=1;overflow=hidden;html=1;fontStyle=0" parent="tJjoTh5x9sIFmA15xVmD-78" vertex="1">
          <mxGeometry width="30" height="30" as="geometry">
            <mxRectangle width="30" height="30" as="alternateBounds" />
          </mxGeometry>
        </mxCell>
        <mxCell id="tJjoTh5x9sIFmA15xVmD-80" value="description" style="shape=partialRectangle;connectable=0;fillColor=none;top=0;left=0;bottom=0;right=0;align=left;spacingLeft=6;overflow=hidden;html=1;" parent="tJjoTh5x9sIFmA15xVmD-78" vertex="1">
          <mxGeometry x="30" width="130" height="30" as="geometry">
            <mxRectangle width="130" height="30" as="alternateBounds" />
          </mxGeometry>
        </mxCell>
        <mxCell id="TileePiu1FDQsJoA0QER-30" value="" style="shape=tableRow;horizontal=0;startSize=0;swimlaneHead=0;swimlaneBody=0;fillColor=none;collapsible=0;dropTarget=0;points=[[0,0.5],[1,0.5]];portConstraint=eastwest;top=0;left=0;right=0;bottom=0;html=1;" parent="tJjoTh5x9sIFmA15xVmD-71" vertex="1">
          <mxGeometry y="120" width="160" height="30" as="geometry" />
        </mxCell>
        <mxCell id="TileePiu1FDQsJoA0QER-31" value="" style="shape=partialRectangle;connectable=0;fillColor=none;top=0;left=0;bottom=0;right=0;editable=1;overflow=hidden;html=1;fontStyle=0" parent="TileePiu1FDQsJoA0QER-30" vertex="1">
          <mxGeometry width="30" height="30" as="geometry">
            <mxRectangle width="30" height="30" as="alternateBounds" />
          </mxGeometry>
        </mxCell>
        <mxCell id="TileePiu1FDQsJoA0QER-32" value="weight" style="shape=partialRectangle;connectable=0;fillColor=none;top=0;left=0;bottom=0;right=0;align=left;spacingLeft=6;overflow=hidden;html=1;" parent="TileePiu1FDQsJoA0QER-30" vertex="1">
          <mxGeometry x="30" width="130" height="30" as="geometry">
            <mxRectangle width="130" height="30" as="alternateBounds" />
          </mxGeometry>
        </mxCell>
        <mxCell id="TileePiu1FDQsJoA0QER-33" value="" style="shape=tableRow;horizontal=0;startSize=0;swimlaneHead=0;swimlaneBody=0;fillColor=none;collapsible=0;dropTarget=0;points=[[0,0.5],[1,0.5]];portConstraint=eastwest;top=0;left=0;right=0;bottom=0;html=1;" parent="tJjoTh5x9sIFmA15xVmD-71" vertex="1">
          <mxGeometry y="150" width="160" height="30" as="geometry" />
        </mxCell>
        <mxCell id="TileePiu1FDQsJoA0QER-34" value="" style="shape=partialRectangle;connectable=0;fillColor=none;top=0;left=0;bottom=0;right=0;editable=1;overflow=hidden;html=1;fontStyle=0" parent="TileePiu1FDQsJoA0QER-33" vertex="1">
          <mxGeometry width="30" height="30" as="geometry">
            <mxRectangle width="30" height="30" as="alternateBounds" />
          </mxGeometry>
        </mxCell>
        <mxCell id="TileePiu1FDQsJoA0QER-35" value="body_size" style="shape=partialRectangle;connectable=0;fillColor=none;top=0;left=0;bottom=0;right=0;align=left;spacingLeft=6;overflow=hidden;html=1;" parent="TileePiu1FDQsJoA0QER-33" vertex="1">
          <mxGeometry x="30" width="130" height="30" as="geometry">
            <mxRectangle width="130" height="30" as="alternateBounds" />
          </mxGeometry>
        </mxCell>
        <mxCell id="TileePiu1FDQsJoA0QER-45" value="" style="shape=tableRow;horizontal=0;startSize=0;swimlaneHead=0;swimlaneBody=0;fillColor=none;collapsible=0;dropTarget=0;points=[[0,0.5],[1,0.5]];portConstraint=eastwest;top=0;left=0;right=0;bottom=0;html=1;" parent="tJjoTh5x9sIFmA15xVmD-71" vertex="1">
          <mxGeometry y="180" width="160" height="30" as="geometry" />
        </mxCell>
        <mxCell id="TileePiu1FDQsJoA0QER-46" value="" style="shape=partialRectangle;connectable=0;fillColor=none;top=0;left=0;bottom=0;right=0;editable=1;overflow=hidden;html=1;fontStyle=0" parent="TileePiu1FDQsJoA0QER-45" vertex="1">
          <mxGeometry width="30" height="30" as="geometry">
            <mxRectangle width="30" height="30" as="alternateBounds" />
          </mxGeometry>
        </mxCell>
        <mxCell id="TileePiu1FDQsJoA0QER-47" value="wheel_size" style="shape=partialRectangle;connectable=0;fillColor=none;top=0;left=0;bottom=0;right=0;align=left;spacingLeft=6;overflow=hidden;html=1;" parent="TileePiu1FDQsJoA0QER-45" vertex="1">
          <mxGeometry x="30" width="130" height="30" as="geometry">
            <mxRectangle width="130" height="30" as="alternateBounds" />
          </mxGeometry>
        </mxCell>
        <mxCell id="TileePiu1FDQsJoA0QER-36" value="" style="shape=tableRow;horizontal=0;startSize=0;swimlaneHead=0;swimlaneBody=0;fillColor=none;collapsible=0;dropTarget=0;points=[[0,0.5],[1,0.5]];portConstraint=eastwest;top=0;left=0;right=0;bottom=0;html=1;" parent="tJjoTh5x9sIFmA15xVmD-71" vertex="1">
          <mxGeometry y="210" width="160" height="30" as="geometry" />
        </mxCell>
        <mxCell id="TileePiu1FDQsJoA0QER-37" value="" style="shape=partialRectangle;connectable=0;fillColor=none;top=0;left=0;bottom=0;right=0;editable=1;overflow=hidden;html=1;fontStyle=0" parent="TileePiu1FDQsJoA0QER-36" vertex="1">
          <mxGeometry width="30" height="30" as="geometry">
            <mxRectangle width="30" height="30" as="alternateBounds" />
          </mxGeometry>
        </mxCell>
        <mxCell id="TileePiu1FDQsJoA0QER-38" value="body_material" style="shape=partialRectangle;connectable=0;fillColor=none;top=0;left=0;bottom=0;right=0;align=left;spacingLeft=6;overflow=hidden;html=1;" parent="TileePiu1FDQsJoA0QER-36" vertex="1">
          <mxGeometry x="30" width="130" height="30" as="geometry">
            <mxRectangle width="130" height="30" as="alternateBounds" />
          </mxGeometry>
        </mxCell>
        <mxCell id="TileePiu1FDQsJoA0QER-39" value="" style="shape=tableRow;horizontal=0;startSize=0;swimlaneHead=0;swimlaneBody=0;fillColor=none;collapsible=0;dropTarget=0;points=[[0,0.5],[1,0.5]];portConstraint=eastwest;top=0;left=0;right=0;bottom=0;html=1;" parent="tJjoTh5x9sIFmA15xVmD-71" vertex="1">
          <mxGeometry y="240" width="160" height="30" as="geometry" />
        </mxCell>
        <mxCell id="TileePiu1FDQsJoA0QER-40" value="" style="shape=partialRectangle;connectable=0;fillColor=none;top=0;left=0;bottom=0;right=0;editable=1;overflow=hidden;html=1;fontStyle=0" parent="TileePiu1FDQsJoA0QER-39" vertex="1">
          <mxGeometry width="30" height="30" as="geometry">
            <mxRectangle width="30" height="30" as="alternateBounds" />
          </mxGeometry>
        </mxCell>
        <mxCell id="TileePiu1FDQsJoA0QER-41" value="gear_number" style="shape=partialRectangle;connectable=0;fillColor=none;top=0;left=0;bottom=0;right=0;align=left;spacingLeft=6;overflow=hidden;html=1;" parent="TileePiu1FDQsJoA0QER-39" vertex="1">
          <mxGeometry x="30" width="130" height="30" as="geometry">
            <mxRectangle width="130" height="30" as="alternateBounds" />
          </mxGeometry>
        </mxCell>
        <mxCell id="TileePiu1FDQsJoA0QER-42" value="" style="shape=tableRow;horizontal=0;startSize=0;swimlaneHead=0;swimlaneBody=0;fillColor=none;collapsible=0;dropTarget=0;points=[[0,0.5],[1,0.5]];portConstraint=eastwest;top=0;left=0;right=0;bottom=0;html=1;" parent="tJjoTh5x9sIFmA15xVmD-71" vertex="1">
          <mxGeometry y="270" width="160" height="30" as="geometry" />
        </mxCell>
        <mxCell id="TileePiu1FDQsJoA0QER-43" value="" style="shape=partialRectangle;connectable=0;fillColor=none;top=0;left=0;bottom=0;right=0;editable=1;overflow=hidden;html=1;fontStyle=0" parent="TileePiu1FDQsJoA0QER-42" vertex="1">
          <mxGeometry width="30" height="30" as="geometry">
            <mxRectangle width="30" height="30" as="alternateBounds" />
          </mxGeometry>
        </mxCell>
        <mxCell id="TileePiu1FDQsJoA0QER-44" value="weight_limit" style="shape=partialRectangle;connectable=0;fillColor=none;top=0;left=0;bottom=0;right=0;align=left;spacingLeft=6;overflow=hidden;html=1;" parent="TileePiu1FDQsJoA0QER-42" vertex="1">
          <mxGeometry x="30" width="130" height="30" as="geometry">
            <mxRectangle width="130" height="30" as="alternateBounds" />
          </mxGeometry>
        </mxCell>
        <mxCell id="ZOS2vYi2qAPQNt6-Y6eB-1" value="" style="shape=tableRow;horizontal=0;startSize=0;swimlaneHead=0;swimlaneBody=0;fillColor=none;collapsible=0;dropTarget=0;points=[[0,0.5],[1,0.5]];portConstraint=eastwest;top=0;left=0;right=0;bottom=0;html=1;" parent="tJjoTh5x9sIFmA15xVmD-71" vertex="1">
          <mxGeometry y="300" width="160" height="30" as="geometry" />
        </mxCell>
        <mxCell id="ZOS2vYi2qAPQNt6-Y6eB-2" value="" style="shape=partialRectangle;connectable=0;fillColor=none;top=0;left=0;bottom=0;right=0;editable=1;overflow=hidden;html=1;fontStyle=0" parent="ZOS2vYi2qAPQNt6-Y6eB-1" vertex="1">
          <mxGeometry width="30" height="30" as="geometry">
            <mxRectangle width="30" height="30" as="alternateBounds" />
          </mxGeometry>
        </mxCell>
        <mxCell id="ZOS2vYi2qAPQNt6-Y6eB-3" value="is_available" style="shape=partialRectangle;connectable=0;fillColor=none;top=0;left=0;bottom=0;right=0;align=left;spacingLeft=6;overflow=hidden;html=1;" parent="ZOS2vYi2qAPQNt6-Y6eB-1" vertex="1">
          <mxGeometry x="30" width="130" height="30" as="geometry">
            <mxRectangle width="130" height="30" as="alternateBounds" />
          </mxGeometry>
        </mxCell>
        <mxCell id="ZOS2vYi2qAPQNt6-Y6eB-8" value="" style="shape=tableRow;horizontal=0;startSize=0;swimlaneHead=0;swimlaneBody=0;fillColor=none;collapsible=0;dropTarget=0;points=[[0,0.5],[1,0.5]];portConstraint=eastwest;top=0;left=0;right=0;bottom=0;html=1;" parent="tJjoTh5x9sIFmA15xVmD-71" vertex="1">
          <mxGeometry y="330" width="160" height="30" as="geometry" />
        </mxCell>
        <mxCell id="ZOS2vYi2qAPQNt6-Y6eB-9" value="" style="shape=partialRectangle;connectable=0;fillColor=none;top=0;left=0;bottom=0;right=0;editable=1;overflow=hidden;html=1;fontStyle=0" parent="ZOS2vYi2qAPQNt6-Y6eB-8" vertex="1">
          <mxGeometry width="30" height="30" as="geometry">
            <mxRectangle width="30" height="30" as="alternateBounds" />
          </mxGeometry>
        </mxCell>
        <mxCell id="ZOS2vYi2qAPQNt6-Y6eB-10" value="is_shown" style="shape=partialRectangle;connectable=0;fillColor=none;top=0;left=0;bottom=0;right=0;align=left;spacingLeft=6;overflow=hidden;html=1;" parent="ZOS2vYi2qAPQNt6-Y6eB-8" vertex="1">
          <mxGeometry x="30" width="130" height="30" as="geometry">
            <mxRectangle width="130" height="30" as="alternateBounds" />
          </mxGeometry>
        </mxCell>
        <mxCell id="tJjoTh5x9sIFmA15xVmD-97" value="borrows" style="shape=table;startSize=30;container=1;collapsible=1;childLayout=tableLayout;fixedRows=1;rowLines=0;fontStyle=1;align=center;resizeLast=1;html=1;rounded=1;" parent="1" vertex="1">
          <mxGeometry x="360" y="40" width="160" height="210" as="geometry" />
        </mxCell>
        <mxCell id="tJjoTh5x9sIFmA15xVmD-98" value="" style="shape=tableRow;horizontal=0;startSize=0;swimlaneHead=0;swimlaneBody=0;fillColor=none;collapsible=0;dropTarget=0;points=[[0,0.5],[1,0.5]];portConstraint=eastwest;top=0;left=0;right=0;bottom=1;html=1;" parent="tJjoTh5x9sIFmA15xVmD-97" vertex="1">
          <mxGeometry y="30" width="160" height="30" as="geometry" />
        </mxCell>
        <mxCell id="tJjoTh5x9sIFmA15xVmD-99" value="PK" style="shape=partialRectangle;connectable=0;fillColor=none;top=0;left=0;bottom=0;right=0;fontStyle=1;overflow=hidden;html=1;" parent="tJjoTh5x9sIFmA15xVmD-98" vertex="1">
          <mxGeometry width="30" height="30" as="geometry">
            <mxRectangle width="30" height="30" as="alternateBounds" />
          </mxGeometry>
        </mxCell>
        <mxCell id="tJjoTh5x9sIFmA15xVmD-100" value="borrow_id" style="shape=partialRectangle;connectable=0;fillColor=none;top=0;left=0;bottom=0;right=0;align=left;spacingLeft=6;fontStyle=5;overflow=hidden;html=1;" parent="tJjoTh5x9sIFmA15xVmD-98" vertex="1">
          <mxGeometry x="30" width="130" height="30" as="geometry">
            <mxRectangle width="130" height="30" as="alternateBounds" />
          </mxGeometry>
        </mxCell>
        <mxCell id="tJjoTh5x9sIFmA15xVmD-101" value="" style="shape=tableRow;horizontal=0;startSize=0;swimlaneHead=0;swimlaneBody=0;fillColor=none;collapsible=0;dropTarget=0;points=[[0,0.5],[1,0.5]];portConstraint=eastwest;top=0;left=0;right=0;bottom=0;html=1;" parent="tJjoTh5x9sIFmA15xVmD-97" vertex="1">
          <mxGeometry y="60" width="160" height="30" as="geometry" />
        </mxCell>
        <mxCell id="tJjoTh5x9sIFmA15xVmD-102" value="FK" style="shape=partialRectangle;connectable=0;fillColor=none;top=0;left=0;bottom=0;right=0;editable=1;overflow=hidden;html=1;fontStyle=0" parent="tJjoTh5x9sIFmA15xVmD-101" vertex="1">
          <mxGeometry width="30" height="30" as="geometry">
            <mxRectangle width="30" height="30" as="alternateBounds" />
          </mxGeometry>
        </mxCell>
        <mxCell id="tJjoTh5x9sIFmA15xVmD-103" value="bike_id" style="shape=partialRectangle;connectable=0;fillColor=none;top=0;left=0;bottom=0;right=0;align=left;spacingLeft=6;overflow=hidden;html=1;" parent="tJjoTh5x9sIFmA15xVmD-101" vertex="1">
          <mxGeometry x="30" width="130" height="30" as="geometry">
            <mxRectangle width="130" height="30" as="alternateBounds" />
          </mxGeometry>
        </mxCell>
        <mxCell id="tJjoTh5x9sIFmA15xVmD-107" value="" style="shape=tableRow;horizontal=0;startSize=0;swimlaneHead=0;swimlaneBody=0;fillColor=none;collapsible=0;dropTarget=0;points=[[0,0.5],[1,0.5]];portConstraint=eastwest;top=0;left=0;right=0;bottom=0;html=1;" parent="tJjoTh5x9sIFmA15xVmD-97" vertex="1">
          <mxGeometry y="90" width="160" height="30" as="geometry" />
        </mxCell>
        <mxCell id="tJjoTh5x9sIFmA15xVmD-108" value="FK" style="shape=partialRectangle;connectable=0;fillColor=none;top=0;left=0;bottom=0;right=0;editable=1;overflow=hidden;html=1;fontStyle=0" parent="tJjoTh5x9sIFmA15xVmD-107" vertex="1">
          <mxGeometry width="30" height="30" as="geometry">
            <mxRectangle width="30" height="30" as="alternateBounds" />
          </mxGeometry>
        </mxCell>
        <mxCell id="tJjoTh5x9sIFmA15xVmD-109" value="user_id" style="shape=partialRectangle;connectable=0;fillColor=none;top=0;left=0;bottom=0;right=0;align=left;spacingLeft=6;overflow=hidden;html=1;" parent="tJjoTh5x9sIFmA15xVmD-107" vertex="1">
          <mxGeometry x="30" width="130" height="30" as="geometry">
            <mxRectangle width="130" height="30" as="alternateBounds" />
          </mxGeometry>
        </mxCell>
        <mxCell id="tJjoTh5x9sIFmA15xVmD-104" value="" style="shape=tableRow;horizontal=0;startSize=0;swimlaneHead=0;swimlaneBody=0;fillColor=none;collapsible=0;dropTarget=0;points=[[0,0.5],[1,0.5]];portConstraint=eastwest;top=0;left=0;right=0;bottom=0;html=1;" parent="tJjoTh5x9sIFmA15xVmD-97" vertex="1">
          <mxGeometry y="120" width="160" height="30" as="geometry" />
        </mxCell>
        <mxCell id="tJjoTh5x9sIFmA15xVmD-105" value="" style="shape=partialRectangle;connectable=0;fillColor=none;top=0;left=0;bottom=0;right=0;editable=1;overflow=hidden;html=1;fontStyle=0" parent="tJjoTh5x9sIFmA15xVmD-104" vertex="1">
          <mxGeometry width="30" height="30" as="geometry">
            <mxRectangle width="30" height="30" as="alternateBounds" />
          </mxGeometry>
        </mxCell>
        <mxCell id="tJjoTh5x9sIFmA15xVmD-106" value="datetime_from" style="shape=partialRectangle;connectable=0;fillColor=none;top=0;left=0;bottom=0;right=0;align=left;spacingLeft=6;overflow=hidden;html=1;" parent="tJjoTh5x9sIFmA15xVmD-104" vertex="1">
          <mxGeometry x="30" width="130" height="30" as="geometry">
            <mxRectangle width="130" height="30" as="alternateBounds" />
          </mxGeometry>
        </mxCell>
        <mxCell id="TileePiu1FDQsJoA0QER-1" value="" style="shape=tableRow;horizontal=0;startSize=0;swimlaneHead=0;swimlaneBody=0;fillColor=none;collapsible=0;dropTarget=0;points=[[0,0.5],[1,0.5]];portConstraint=eastwest;top=0;left=0;right=0;bottom=0;html=1;" parent="tJjoTh5x9sIFmA15xVmD-97" vertex="1">
          <mxGeometry y="150" width="160" height="30" as="geometry" />
        </mxCell>
        <mxCell id="TileePiu1FDQsJoA0QER-2" value="" style="shape=partialRectangle;connectable=0;fillColor=none;top=0;left=0;bottom=0;right=0;editable=1;overflow=hidden;html=1;fontStyle=0" parent="TileePiu1FDQsJoA0QER-1" vertex="1">
          <mxGeometry width="30" height="30" as="geometry">
            <mxRectangle width="30" height="30" as="alternateBounds" />
          </mxGeometry>
        </mxCell>
        <mxCell id="TileePiu1FDQsJoA0QER-3" value="datetime_to" style="shape=partialRectangle;connectable=0;fillColor=none;top=0;left=0;bottom=0;right=0;align=left;spacingLeft=6;overflow=hidden;html=1;" parent="TileePiu1FDQsJoA0QER-1" vertex="1">
          <mxGeometry x="30" width="130" height="30" as="geometry">
            <mxRectangle width="130" height="30" as="alternateBounds" />
          </mxGeometry>
        </mxCell>
        <mxCell id="TileePiu1FDQsJoA0QER-59" value="" style="shape=tableRow;horizontal=0;startSize=0;swimlaneHead=0;swimlaneBody=0;fillColor=none;collapsible=0;dropTarget=0;points=[[0,0.5],[1,0.5]];portConstraint=eastwest;top=0;left=0;right=0;bottom=0;html=1;" parent="tJjoTh5x9sIFmA15xVmD-97" vertex="1">
          <mxGeometry y="180" width="160" height="30" as="geometry" />
        </mxCell>
        <mxCell id="TileePiu1FDQsJoA0QER-60" value="FK" style="shape=partialRectangle;connectable=0;fillColor=none;top=0;left=0;bottom=0;right=0;editable=1;overflow=hidden;html=1;fontStyle=0" parent="TileePiu1FDQsJoA0QER-59" vertex="1">
          <mxGeometry width="30" height="30" as="geometry">
            <mxRectangle width="30" height="30" as="alternateBounds" />
          </mxGeometry>
        </mxCell>
        <mxCell id="TileePiu1FDQsJoA0QER-61" value="payment_method_id" style="shape=partialRectangle;connectable=0;fillColor=none;top=0;left=0;bottom=0;right=0;align=left;spacingLeft=6;overflow=hidden;html=1;" parent="TileePiu1FDQsJoA0QER-59" vertex="1">
          <mxGeometry x="30" width="130" height="30" as="geometry">
            <mxRectangle width="130" height="30" as="alternateBounds" />
          </mxGeometry>
        </mxCell>
        <mxCell id="tJjoTh5x9sIFmA15xVmD-125" style="edgeStyle=orthogonalEdgeStyle;rounded=1;orthogonalLoop=1;jettySize=auto;html=1;exitX=0;exitY=0.5;exitDx=0;exitDy=0;entryX=0;entryY=0.5;entryDx=0;entryDy=0;startArrow=ERmany;startFill=0;endArrow=none;endFill=0;startSize=10;endSize=10;jumpStyle=gap;jumpSize=10;" parent="1" source="tJjoTh5x9sIFmA15xVmD-110" target="tJjoTh5x9sIFmA15xVmD-72" edge="1">
          <mxGeometry x="0.1145" y="20" relative="1" as="geometry">
            <Array as="points">
              <mxPoint x="40" y="395" />
              <mxPoint x="40" y="-75" />
            </Array>
            <mxPoint as="offset" />
          </mxGeometry>
        </mxCell>
        <mxCell id="tJjoTh5x9sIFmA15xVmD-110" value="bike_prices" style="shape=table;startSize=30;container=1;collapsible=1;childLayout=tableLayout;fixedRows=1;rowLines=0;fontStyle=1;align=center;resizeLast=1;html=1;rounded=1;" parent="1" vertex="1">
          <mxGeometry x="80" y="320" width="160" height="150" as="geometry" />
        </mxCell>
        <mxCell id="tJjoTh5x9sIFmA15xVmD-111" value="" style="shape=tableRow;horizontal=0;startSize=0;swimlaneHead=0;swimlaneBody=0;fillColor=none;collapsible=0;dropTarget=0;points=[[0,0.5],[1,0.5]];portConstraint=eastwest;top=0;left=0;right=0;bottom=1;html=1;" parent="tJjoTh5x9sIFmA15xVmD-110" vertex="1">
          <mxGeometry y="30" width="160" height="30" as="geometry" />
        </mxCell>
        <mxCell id="tJjoTh5x9sIFmA15xVmD-112" value="PK" style="shape=partialRectangle;connectable=0;fillColor=none;top=0;left=0;bottom=0;right=0;fontStyle=1;overflow=hidden;html=1;" parent="tJjoTh5x9sIFmA15xVmD-111" vertex="1">
          <mxGeometry width="30" height="30" as="geometry">
            <mxRectangle width="30" height="30" as="alternateBounds" />
          </mxGeometry>
        </mxCell>
        <mxCell id="tJjoTh5x9sIFmA15xVmD-113" value="bike_price_id" style="shape=partialRectangle;connectable=0;fillColor=none;top=0;left=0;bottom=0;right=0;align=left;spacingLeft=6;fontStyle=5;overflow=hidden;html=1;" parent="tJjoTh5x9sIFmA15xVmD-111" vertex="1">
          <mxGeometry x="30" width="130" height="30" as="geometry">
            <mxRectangle width="130" height="30" as="alternateBounds" />
          </mxGeometry>
        </mxCell>
        <mxCell id="tJjoTh5x9sIFmA15xVmD-114" value="" style="shape=tableRow;horizontal=0;startSize=0;swimlaneHead=0;swimlaneBody=0;fillColor=none;collapsible=0;dropTarget=0;points=[[0,0.5],[1,0.5]];portConstraint=eastwest;top=0;left=0;right=0;bottom=0;html=1;" parent="tJjoTh5x9sIFmA15xVmD-110" vertex="1">
          <mxGeometry y="60" width="160" height="30" as="geometry" />
        </mxCell>
        <mxCell id="tJjoTh5x9sIFmA15xVmD-115" value="FK" style="shape=partialRectangle;connectable=0;fillColor=none;top=0;left=0;bottom=0;right=0;editable=1;overflow=hidden;html=1;fontStyle=0" parent="tJjoTh5x9sIFmA15xVmD-114" vertex="1">
          <mxGeometry width="30" height="30" as="geometry">
            <mxRectangle width="30" height="30" as="alternateBounds" />
          </mxGeometry>
        </mxCell>
        <mxCell id="tJjoTh5x9sIFmA15xVmD-116" value="bike_id" style="shape=partialRectangle;connectable=0;fillColor=none;top=0;left=0;bottom=0;right=0;align=left;spacingLeft=6;overflow=hidden;html=1;" parent="tJjoTh5x9sIFmA15xVmD-114" vertex="1">
          <mxGeometry x="30" width="130" height="30" as="geometry">
            <mxRectangle width="130" height="30" as="alternateBounds" />
          </mxGeometry>
        </mxCell>
        <mxCell id="tJjoTh5x9sIFmA15xVmD-117" value="" style="shape=tableRow;horizontal=0;startSize=0;swimlaneHead=0;swimlaneBody=0;fillColor=none;collapsible=0;dropTarget=0;points=[[0,0.5],[1,0.5]];portConstraint=eastwest;top=0;left=0;right=0;bottom=0;html=1;" parent="tJjoTh5x9sIFmA15xVmD-110" vertex="1">
          <mxGeometry y="90" width="160" height="30" as="geometry" />
        </mxCell>
        <mxCell id="tJjoTh5x9sIFmA15xVmD-118" value="" style="shape=partialRectangle;connectable=0;fillColor=none;top=0;left=0;bottom=0;right=0;editable=1;overflow=hidden;html=1;fontStyle=0" parent="tJjoTh5x9sIFmA15xVmD-117" vertex="1">
          <mxGeometry width="30" height="30" as="geometry">
            <mxRectangle width="30" height="30" as="alternateBounds" />
          </mxGeometry>
        </mxCell>
        <mxCell id="tJjoTh5x9sIFmA15xVmD-119" value="price" style="shape=partialRectangle;connectable=0;fillColor=none;top=0;left=0;bottom=0;right=0;align=left;spacingLeft=6;overflow=hidden;html=1;" parent="tJjoTh5x9sIFmA15xVmD-117" vertex="1">
          <mxGeometry x="30" width="130" height="30" as="geometry">
            <mxRectangle width="130" height="30" as="alternateBounds" />
          </mxGeometry>
        </mxCell>
        <mxCell id="tJjoTh5x9sIFmA15xVmD-120" value="" style="shape=tableRow;horizontal=0;startSize=0;swimlaneHead=0;swimlaneBody=0;fillColor=none;collapsible=0;dropTarget=0;points=[[0,0.5],[1,0.5]];portConstraint=eastwest;top=0;left=0;right=0;bottom=0;html=1;" parent="tJjoTh5x9sIFmA15xVmD-110" vertex="1">
          <mxGeometry y="120" width="160" height="30" as="geometry" />
        </mxCell>
        <mxCell id="tJjoTh5x9sIFmA15xVmD-121" value="" style="shape=partialRectangle;connectable=0;fillColor=none;top=0;left=0;bottom=0;right=0;editable=1;overflow=hidden;html=1;fontStyle=0" parent="tJjoTh5x9sIFmA15xVmD-120" vertex="1">
          <mxGeometry width="30" height="30" as="geometry">
            <mxRectangle width="30" height="30" as="alternateBounds" />
          </mxGeometry>
        </mxCell>
        <mxCell id="tJjoTh5x9sIFmA15xVmD-122" value="datetime" style="shape=partialRectangle;connectable=0;fillColor=none;top=0;left=0;bottom=0;right=0;align=left;spacingLeft=6;overflow=hidden;html=1;" parent="tJjoTh5x9sIFmA15xVmD-120" vertex="1">
          <mxGeometry x="30" width="130" height="30" as="geometry">
            <mxRectangle width="130" height="30" as="alternateBounds" />
          </mxGeometry>
        </mxCell>
        <mxCell id="tJjoTh5x9sIFmA15xVmD-124" style="edgeStyle=orthogonalEdgeStyle;rounded=1;orthogonalLoop=1;jettySize=auto;html=1;exitX=0;exitY=0.5;exitDx=0;exitDy=0;entryX=1;entryY=0.5;entryDx=0;entryDy=0;endArrow=none;endFill=0;startArrow=ERmany;startFill=0;endSize=10;startSize=10;jumpStyle=gap;jumpSize=10;" parent="1" source="tJjoTh5x9sIFmA15xVmD-101" target="tJjoTh5x9sIFmA15xVmD-72" edge="1">
          <mxGeometry relative="1" as="geometry">
            <Array as="points">
              <mxPoint x="280" y="115" />
              <mxPoint x="280" y="-75" />
            </Array>
          </mxGeometry>
        </mxCell>
        <mxCell id="tJjoTh5x9sIFmA15xVmD-126" value="users" style="shape=table;startSize=30;container=1;collapsible=1;childLayout=tableLayout;fixedRows=1;rowLines=0;fontStyle=1;align=center;resizeLast=1;html=1;rounded=1;" parent="1" vertex="1">
          <mxGeometry x="640" y="40" width="160" height="330" as="geometry" />
        </mxCell>
        <mxCell id="tJjoTh5x9sIFmA15xVmD-127" value="" style="shape=tableRow;horizontal=0;startSize=0;swimlaneHead=0;swimlaneBody=0;fillColor=none;collapsible=0;dropTarget=0;points=[[0,0.5],[1,0.5]];portConstraint=eastwest;top=0;left=0;right=0;bottom=1;html=1;" parent="tJjoTh5x9sIFmA15xVmD-126" vertex="1">
          <mxGeometry y="30" width="160" height="30" as="geometry" />
        </mxCell>
        <mxCell id="tJjoTh5x9sIFmA15xVmD-128" value="PK" style="shape=partialRectangle;connectable=0;fillColor=none;top=0;left=0;bottom=0;right=0;fontStyle=1;overflow=hidden;html=1;" parent="tJjoTh5x9sIFmA15xVmD-127" vertex="1">
          <mxGeometry width="30" height="30" as="geometry">
            <mxRectangle width="30" height="30" as="alternateBounds" />
          </mxGeometry>
        </mxCell>
        <mxCell id="tJjoTh5x9sIFmA15xVmD-129" value="user_id" style="shape=partialRectangle;connectable=0;fillColor=none;top=0;left=0;bottom=0;right=0;align=left;spacingLeft=6;fontStyle=5;overflow=hidden;html=1;" parent="tJjoTh5x9sIFmA15xVmD-127" vertex="1">
          <mxGeometry x="30" width="130" height="30" as="geometry">
            <mxRectangle width="130" height="30" as="alternateBounds" />
          </mxGeometry>
        </mxCell>
        <mxCell id="VE5APxpFyQbxVgRIOtsa-20" value="" style="shape=tableRow;horizontal=0;startSize=0;swimlaneHead=0;swimlaneBody=0;fillColor=none;collapsible=0;dropTarget=0;points=[[0,0.5],[1,0.5]];portConstraint=eastwest;top=0;left=0;right=0;bottom=0;html=1;" parent="tJjoTh5x9sIFmA15xVmD-126" vertex="1">
          <mxGeometry y="60" width="160" height="30" as="geometry" />
        </mxCell>
        <mxCell id="VE5APxpFyQbxVgRIOtsa-21" value="FK" style="shape=partialRectangle;connectable=0;fillColor=none;top=0;left=0;bottom=0;right=0;editable=1;overflow=hidden;html=1;fontStyle=0" parent="VE5APxpFyQbxVgRIOtsa-20" vertex="1">
          <mxGeometry width="30" height="30" as="geometry">
            <mxRectangle width="30" height="30" as="alternateBounds" />
          </mxGeometry>
        </mxCell>
        <mxCell id="VE5APxpFyQbxVgRIOtsa-22" value="role_id" style="shape=partialRectangle;connectable=0;fillColor=none;top=0;left=0;bottom=0;right=0;align=left;spacingLeft=6;overflow=hidden;html=1;" parent="VE5APxpFyQbxVgRIOtsa-20" vertex="1">
          <mxGeometry x="30" width="130" height="30" as="geometry">
            <mxRectangle width="130" height="30" as="alternateBounds" />
          </mxGeometry>
        </mxCell>
        <mxCell id="tJjoTh5x9sIFmA15xVmD-130" value="" style="shape=tableRow;horizontal=0;startSize=0;swimlaneHead=0;swimlaneBody=0;fillColor=none;collapsible=0;dropTarget=0;points=[[0,0.5],[1,0.5]];portConstraint=eastwest;top=0;left=0;right=0;bottom=0;html=1;" parent="tJjoTh5x9sIFmA15xVmD-126" vertex="1">
          <mxGeometry y="90" width="160" height="30" as="geometry" />
        </mxCell>
        <mxCell id="tJjoTh5x9sIFmA15xVmD-131" value="" style="shape=partialRectangle;connectable=0;fillColor=none;top=0;left=0;bottom=0;right=0;editable=1;overflow=hidden;html=1;fontStyle=0" parent="tJjoTh5x9sIFmA15xVmD-130" vertex="1">
          <mxGeometry width="30" height="30" as="geometry">
            <mxRectangle width="30" height="30" as="alternateBounds" />
          </mxGeometry>
        </mxCell>
        <mxCell id="tJjoTh5x9sIFmA15xVmD-132" value="login_name" style="shape=partialRectangle;connectable=0;fillColor=none;top=0;left=0;bottom=0;right=0;align=left;spacingLeft=6;overflow=hidden;html=1;" parent="tJjoTh5x9sIFmA15xVmD-130" vertex="1">
          <mxGeometry x="30" width="130" height="30" as="geometry">
            <mxRectangle width="130" height="30" as="alternateBounds" />
          </mxGeometry>
        </mxCell>
        <mxCell id="_h99ywxlzWId6l1qNZVx-1" value="" style="shape=tableRow;horizontal=0;startSize=0;swimlaneHead=0;swimlaneBody=0;fillColor=none;collapsible=0;dropTarget=0;points=[[0,0.5],[1,0.5]];portConstraint=eastwest;top=0;left=0;right=0;bottom=0;html=1;" parent="tJjoTh5x9sIFmA15xVmD-126" vertex="1">
          <mxGeometry y="120" width="160" height="30" as="geometry" />
        </mxCell>
        <mxCell id="_h99ywxlzWId6l1qNZVx-2" value="" style="shape=partialRectangle;connectable=0;fillColor=none;top=0;left=0;bottom=0;right=0;editable=1;overflow=hidden;html=1;fontStyle=0" parent="_h99ywxlzWId6l1qNZVx-1" vertex="1">
          <mxGeometry width="30" height="30" as="geometry">
            <mxRectangle width="30" height="30" as="alternateBounds" />
          </mxGeometry>
        </mxCell>
        <mxCell id="_h99ywxlzWId6l1qNZVx-3" value="first_name" style="shape=partialRectangle;connectable=0;fillColor=none;top=0;left=0;bottom=0;right=0;align=left;spacingLeft=6;overflow=hidden;html=1;" parent="_h99ywxlzWId6l1qNZVx-1" vertex="1">
          <mxGeometry x="30" width="130" height="30" as="geometry">
            <mxRectangle width="130" height="30" as="alternateBounds" />
          </mxGeometry>
        </mxCell>
        <mxCell id="_h99ywxlzWId6l1qNZVx-4" value="" style="shape=tableRow;horizontal=0;startSize=0;swimlaneHead=0;swimlaneBody=0;fillColor=none;collapsible=0;dropTarget=0;points=[[0,0.5],[1,0.5]];portConstraint=eastwest;top=0;left=0;right=0;bottom=0;html=1;" parent="tJjoTh5x9sIFmA15xVmD-126" vertex="1">
          <mxGeometry y="150" width="160" height="30" as="geometry" />
        </mxCell>
        <mxCell id="_h99ywxlzWId6l1qNZVx-5" value="" style="shape=partialRectangle;connectable=0;fillColor=none;top=0;left=0;bottom=0;right=0;editable=1;overflow=hidden;html=1;fontStyle=0" parent="_h99ywxlzWId6l1qNZVx-4" vertex="1">
          <mxGeometry width="30" height="30" as="geometry">
            <mxRectangle width="30" height="30" as="alternateBounds" />
          </mxGeometry>
        </mxCell>
        <mxCell id="_h99ywxlzWId6l1qNZVx-6" value="last_name" style="shape=partialRectangle;connectable=0;fillColor=none;top=0;left=0;bottom=0;right=0;align=left;spacingLeft=6;overflow=hidden;html=1;" parent="_h99ywxlzWId6l1qNZVx-4" vertex="1">
          <mxGeometry x="30" width="130" height="30" as="geometry">
            <mxRectangle width="130" height="30" as="alternateBounds" />
          </mxGeometry>
        </mxCell>
        <mxCell id="TileePiu1FDQsJoA0QER-62" value="" style="shape=tableRow;horizontal=0;startSize=0;swimlaneHead=0;swimlaneBody=0;fillColor=none;collapsible=0;dropTarget=0;points=[[0,0.5],[1,0.5]];portConstraint=eastwest;top=0;left=0;right=0;bottom=0;html=1;" parent="tJjoTh5x9sIFmA15xVmD-126" vertex="1">
          <mxGeometry y="180" width="160" height="30" as="geometry" />
        </mxCell>
        <mxCell id="TileePiu1FDQsJoA0QER-63" value="" style="shape=partialRectangle;connectable=0;fillColor=none;top=0;left=0;bottom=0;right=0;editable=1;overflow=hidden;html=1;fontStyle=0" parent="TileePiu1FDQsJoA0QER-62" vertex="1">
          <mxGeometry width="30" height="30" as="geometry">
            <mxRectangle width="30" height="30" as="alternateBounds" />
          </mxGeometry>
        </mxCell>
        <mxCell id="TileePiu1FDQsJoA0QER-64" value="password_hash" style="shape=partialRectangle;connectable=0;fillColor=none;top=0;left=0;bottom=0;right=0;align=left;spacingLeft=6;overflow=hidden;html=1;" parent="TileePiu1FDQsJoA0QER-62" vertex="1">
          <mxGeometry x="30" width="130" height="30" as="geometry">
            <mxRectangle width="130" height="30" as="alternateBounds" />
          </mxGeometry>
        </mxCell>
        <mxCell id="tJjoTh5x9sIFmA15xVmD-136" value="" style="shape=tableRow;horizontal=0;startSize=0;swimlaneHead=0;swimlaneBody=0;fillColor=none;collapsible=0;dropTarget=0;points=[[0,0.5],[1,0.5]];portConstraint=eastwest;top=0;left=0;right=0;bottom=0;html=1;" parent="tJjoTh5x9sIFmA15xVmD-126" vertex="1">
          <mxGeometry y="210" width="160" height="30" as="geometry" />
        </mxCell>
        <mxCell id="tJjoTh5x9sIFmA15xVmD-137" value="" style="shape=partialRectangle;connectable=0;fillColor=none;top=0;left=0;bottom=0;right=0;editable=1;overflow=hidden;html=1;fontStyle=0" parent="tJjoTh5x9sIFmA15xVmD-136" vertex="1">
          <mxGeometry width="30" height="30" as="geometry">
            <mxRectangle width="30" height="30" as="alternateBounds" />
          </mxGeometry>
        </mxCell>
        <mxCell id="tJjoTh5x9sIFmA15xVmD-138" value="password_salt" style="shape=partialRectangle;connectable=0;fillColor=none;top=0;left=0;bottom=0;right=0;align=left;spacingLeft=6;overflow=hidden;html=1;" parent="tJjoTh5x9sIFmA15xVmD-136" vertex="1">
          <mxGeometry x="30" width="130" height="30" as="geometry">
            <mxRectangle width="130" height="30" as="alternateBounds" />
          </mxGeometry>
        </mxCell>
        <mxCell id="tJjoTh5x9sIFmA15xVmD-139" value="" style="shape=tableRow;horizontal=0;startSize=0;swimlaneHead=0;swimlaneBody=0;fillColor=none;collapsible=0;dropTarget=0;points=[[0,0.5],[1,0.5]];portConstraint=eastwest;top=0;left=0;right=0;bottom=0;html=1;" parent="tJjoTh5x9sIFmA15xVmD-126" vertex="1">
          <mxGeometry y="240" width="160" height="30" as="geometry" />
        </mxCell>
        <mxCell id="tJjoTh5x9sIFmA15xVmD-140" value="" style="shape=partialRectangle;connectable=0;fillColor=none;top=0;left=0;bottom=0;right=0;editable=1;overflow=hidden;html=1;fontStyle=0" parent="tJjoTh5x9sIFmA15xVmD-139" vertex="1">
          <mxGeometry width="30" height="30" as="geometry">
            <mxRectangle width="30" height="30" as="alternateBounds" />
          </mxGeometry>
        </mxCell>
        <mxCell id="tJjoTh5x9sIFmA15xVmD-141" value="email" style="shape=partialRectangle;connectable=0;fillColor=none;top=0;left=0;bottom=0;right=0;align=left;spacingLeft=6;overflow=hidden;html=1;" parent="tJjoTh5x9sIFmA15xVmD-139" vertex="1">
          <mxGeometry x="30" width="130" height="30" as="geometry">
            <mxRectangle width="130" height="30" as="alternateBounds" />
          </mxGeometry>
        </mxCell>
        <mxCell id="tJjoTh5x9sIFmA15xVmD-142" value="" style="shape=tableRow;horizontal=0;startSize=0;swimlaneHead=0;swimlaneBody=0;fillColor=none;collapsible=0;dropTarget=0;points=[[0,0.5],[1,0.5]];portConstraint=eastwest;top=0;left=0;right=0;bottom=0;html=1;" parent="tJjoTh5x9sIFmA15xVmD-126" vertex="1">
          <mxGeometry y="270" width="160" height="30" as="geometry" />
        </mxCell>
        <mxCell id="tJjoTh5x9sIFmA15xVmD-143" value="" style="shape=partialRectangle;connectable=0;fillColor=none;top=0;left=0;bottom=0;right=0;editable=1;overflow=hidden;html=1;fontStyle=0" parent="tJjoTh5x9sIFmA15xVmD-142" vertex="1">
          <mxGeometry width="30" height="30" as="geometry">
            <mxRectangle width="30" height="30" as="alternateBounds" />
          </mxGeometry>
        </mxCell>
        <mxCell id="tJjoTh5x9sIFmA15xVmD-144" value="phone_number" style="shape=partialRectangle;connectable=0;fillColor=none;top=0;left=0;bottom=0;right=0;align=left;spacingLeft=6;overflow=hidden;html=1;" parent="tJjoTh5x9sIFmA15xVmD-142" vertex="1">
          <mxGeometry x="30" width="130" height="30" as="geometry">
            <mxRectangle width="130" height="30" as="alternateBounds" />
          </mxGeometry>
        </mxCell>
        <mxCell id="PxJlDpMqbMzJhn8xeoCd-1" value="" style="shape=tableRow;horizontal=0;startSize=0;swimlaneHead=0;swimlaneBody=0;fillColor=none;collapsible=0;dropTarget=0;points=[[0,0.5],[1,0.5]];portConstraint=eastwest;top=0;left=0;right=0;bottom=0;html=1;" vertex="1" parent="tJjoTh5x9sIFmA15xVmD-126">
          <mxGeometry y="300" width="160" height="30" as="geometry" />
        </mxCell>
        <mxCell id="PxJlDpMqbMzJhn8xeoCd-2" value="" style="shape=partialRectangle;connectable=0;fillColor=none;top=0;left=0;bottom=0;right=0;editable=1;overflow=hidden;html=1;fontStyle=0" vertex="1" parent="PxJlDpMqbMzJhn8xeoCd-1">
          <mxGeometry width="30" height="30" as="geometry">
            <mxRectangle width="30" height="30" as="alternateBounds" />
          </mxGeometry>
        </mxCell>
        <mxCell id="PxJlDpMqbMzJhn8xeoCd-3" value="is_deactivated" style="shape=partialRectangle;connectable=0;fillColor=none;top=0;left=0;bottom=0;right=0;align=left;spacingLeft=6;overflow=hidden;html=1;" vertex="1" parent="PxJlDpMqbMzJhn8xeoCd-1">
          <mxGeometry x="30" width="130" height="30" as="geometry">
            <mxRectangle width="130" height="30" as="alternateBounds" />
          </mxGeometry>
        </mxCell>
        <mxCell id="tJjoTh5x9sIFmA15xVmD-148" style="edgeStyle=orthogonalEdgeStyle;rounded=1;orthogonalLoop=1;jettySize=auto;html=1;startArrow=ERmany;startFill=0;endArrow=none;endFill=0;startSize=10;endSize=10;jumpStyle=gap;jumpSize=10;" parent="1" source="tJjoTh5x9sIFmA15xVmD-107" target="tJjoTh5x9sIFmA15xVmD-127" edge="1">
          <mxGeometry relative="1" as="geometry">
            <Array as="points">
              <mxPoint x="600" y="145" />
              <mxPoint x="600" y="85" />
            </Array>
          </mxGeometry>
        </mxCell>
        <mxCell id="tJjoTh5x9sIFmA15xVmD-149" value="action_records" style="shape=table;startSize=30;container=1;collapsible=1;childLayout=tableLayout;fixedRows=1;rowLines=0;fontStyle=1;align=center;resizeLast=1;html=1;rounded=1;" parent="1" vertex="1">
          <mxGeometry x="640" y="400" width="160" height="180" as="geometry" />
        </mxCell>
        <mxCell id="tJjoTh5x9sIFmA15xVmD-150" value="" style="shape=tableRow;horizontal=0;startSize=0;swimlaneHead=0;swimlaneBody=0;fillColor=none;collapsible=0;dropTarget=0;points=[[0,0.5],[1,0.5]];portConstraint=eastwest;top=0;left=0;right=0;bottom=1;html=1;" parent="tJjoTh5x9sIFmA15xVmD-149" vertex="1">
          <mxGeometry y="30" width="160" height="30" as="geometry" />
        </mxCell>
        <mxCell id="tJjoTh5x9sIFmA15xVmD-151" value="PK" style="shape=partialRectangle;connectable=0;fillColor=none;top=0;left=0;bottom=0;right=0;fontStyle=1;overflow=hidden;html=1;" parent="tJjoTh5x9sIFmA15xVmD-150" vertex="1">
          <mxGeometry width="30" height="30" as="geometry">
            <mxRectangle width="30" height="30" as="alternateBounds" />
          </mxGeometry>
        </mxCell>
        <mxCell id="tJjoTh5x9sIFmA15xVmD-152" value="login_record_id" style="shape=partialRectangle;connectable=0;fillColor=none;top=0;left=0;bottom=0;right=0;align=left;spacingLeft=6;fontStyle=5;overflow=hidden;html=1;" parent="tJjoTh5x9sIFmA15xVmD-150" vertex="1">
          <mxGeometry x="30" width="130" height="30" as="geometry">
            <mxRectangle width="130" height="30" as="alternateBounds" />
          </mxGeometry>
        </mxCell>
        <mxCell id="tJjoTh5x9sIFmA15xVmD-153" value="" style="shape=tableRow;horizontal=0;startSize=0;swimlaneHead=0;swimlaneBody=0;fillColor=none;collapsible=0;dropTarget=0;points=[[0,0.5],[1,0.5]];portConstraint=eastwest;top=0;left=0;right=0;bottom=0;html=1;" parent="tJjoTh5x9sIFmA15xVmD-149" vertex="1">
          <mxGeometry y="60" width="160" height="30" as="geometry" />
        </mxCell>
        <mxCell id="tJjoTh5x9sIFmA15xVmD-154" value="FK" style="shape=partialRectangle;connectable=0;fillColor=none;top=0;left=0;bottom=0;right=0;editable=1;overflow=hidden;html=1;fontStyle=0" parent="tJjoTh5x9sIFmA15xVmD-153" vertex="1">
          <mxGeometry width="30" height="30" as="geometry">
            <mxRectangle width="30" height="30" as="alternateBounds" />
          </mxGeometry>
        </mxCell>
        <mxCell id="tJjoTh5x9sIFmA15xVmD-155" value="user_id" style="shape=partialRectangle;connectable=0;fillColor=none;top=0;left=0;bottom=0;right=0;align=left;spacingLeft=6;overflow=hidden;html=1;" parent="tJjoTh5x9sIFmA15xVmD-153" vertex="1">
          <mxGeometry x="30" width="130" height="30" as="geometry">
            <mxRectangle width="130" height="30" as="alternateBounds" />
          </mxGeometry>
        </mxCell>
        <mxCell id="tJjoTh5x9sIFmA15xVmD-159" value="" style="shape=tableRow;horizontal=0;startSize=0;swimlaneHead=0;swimlaneBody=0;fillColor=none;collapsible=0;dropTarget=0;points=[[0,0.5],[1,0.5]];portConstraint=eastwest;top=0;left=0;right=0;bottom=0;html=1;" parent="tJjoTh5x9sIFmA15xVmD-149" vertex="1">
          <mxGeometry y="90" width="160" height="30" as="geometry" />
        </mxCell>
        <mxCell id="tJjoTh5x9sIFmA15xVmD-160" value="FK" style="shape=partialRectangle;connectable=0;fillColor=none;top=0;left=0;bottom=0;right=0;editable=1;overflow=hidden;html=1;fontStyle=0" parent="tJjoTh5x9sIFmA15xVmD-159" vertex="1">
          <mxGeometry width="30" height="30" as="geometry">
            <mxRectangle width="30" height="30" as="alternateBounds" />
          </mxGeometry>
        </mxCell>
        <mxCell id="tJjoTh5x9sIFmA15xVmD-161" value="action_type_id" style="shape=partialRectangle;connectable=0;fillColor=none;top=0;left=0;bottom=0;right=0;align=left;spacingLeft=6;overflow=hidden;html=1;" parent="tJjoTh5x9sIFmA15xVmD-159" vertex="1">
          <mxGeometry x="30" width="130" height="30" as="geometry">
            <mxRectangle width="130" height="30" as="alternateBounds" />
          </mxGeometry>
        </mxCell>
        <mxCell id="tJjoTh5x9sIFmA15xVmD-156" value="" style="shape=tableRow;horizontal=0;startSize=0;swimlaneHead=0;swimlaneBody=0;fillColor=none;collapsible=0;dropTarget=0;points=[[0,0.5],[1,0.5]];portConstraint=eastwest;top=0;left=0;right=0;bottom=0;html=1;" parent="tJjoTh5x9sIFmA15xVmD-149" vertex="1">
          <mxGeometry y="120" width="160" height="30" as="geometry" />
        </mxCell>
        <mxCell id="tJjoTh5x9sIFmA15xVmD-157" value="" style="shape=partialRectangle;connectable=0;fillColor=none;top=0;left=0;bottom=0;right=0;editable=1;overflow=hidden;html=1;fontStyle=0" parent="tJjoTh5x9sIFmA15xVmD-156" vertex="1">
          <mxGeometry width="30" height="30" as="geometry">
            <mxRectangle width="30" height="30" as="alternateBounds" />
          </mxGeometry>
        </mxCell>
        <mxCell id="tJjoTh5x9sIFmA15xVmD-158" value="datetime" style="shape=partialRectangle;connectable=0;fillColor=none;top=0;left=0;bottom=0;right=0;align=left;spacingLeft=6;overflow=hidden;html=1;" parent="tJjoTh5x9sIFmA15xVmD-156" vertex="1">
          <mxGeometry x="30" width="130" height="30" as="geometry">
            <mxRectangle width="130" height="30" as="alternateBounds" />
          </mxGeometry>
        </mxCell>
        <mxCell id="VE5APxpFyQbxVgRIOtsa-24" value="" style="shape=tableRow;horizontal=0;startSize=0;swimlaneHead=0;swimlaneBody=0;fillColor=none;collapsible=0;dropTarget=0;points=[[0,0.5],[1,0.5]];portConstraint=eastwest;top=0;left=0;right=0;bottom=0;html=1;" parent="tJjoTh5x9sIFmA15xVmD-149" vertex="1">
          <mxGeometry y="150" width="160" height="30" as="geometry" />
        </mxCell>
        <mxCell id="VE5APxpFyQbxVgRIOtsa-25" value="" style="shape=partialRectangle;connectable=0;fillColor=none;top=0;left=0;bottom=0;right=0;editable=1;overflow=hidden;html=1;fontStyle=0" parent="VE5APxpFyQbxVgRIOtsa-24" vertex="1">
          <mxGeometry width="30" height="30" as="geometry">
            <mxRectangle width="30" height="30" as="alternateBounds" />
          </mxGeometry>
        </mxCell>
        <mxCell id="VE5APxpFyQbxVgRIOtsa-26" value="description" style="shape=partialRectangle;connectable=0;fillColor=none;top=0;left=0;bottom=0;right=0;align=left;spacingLeft=6;overflow=hidden;html=1;" parent="VE5APxpFyQbxVgRIOtsa-24" vertex="1">
          <mxGeometry x="30" width="130" height="30" as="geometry">
            <mxRectangle width="130" height="30" as="alternateBounds" />
          </mxGeometry>
        </mxCell>
        <mxCell id="tJjoTh5x9sIFmA15xVmD-162" value="action_types" style="shape=table;startSize=30;container=1;collapsible=1;childLayout=tableLayout;fixedRows=1;rowLines=0;fontStyle=1;align=center;resizeLast=1;html=1;rounded=1;" parent="1" vertex="1">
          <mxGeometry x="360" y="400" width="160" height="120" as="geometry" />
        </mxCell>
        <mxCell id="tJjoTh5x9sIFmA15xVmD-163" value="" style="shape=tableRow;horizontal=0;startSize=0;swimlaneHead=0;swimlaneBody=0;fillColor=none;collapsible=0;dropTarget=0;points=[[0,0.5],[1,0.5]];portConstraint=eastwest;top=0;left=0;right=0;bottom=1;html=1;" parent="tJjoTh5x9sIFmA15xVmD-162" vertex="1">
          <mxGeometry y="30" width="160" height="30" as="geometry" />
        </mxCell>
        <mxCell id="tJjoTh5x9sIFmA15xVmD-164" value="PK" style="shape=partialRectangle;connectable=0;fillColor=none;top=0;left=0;bottom=0;right=0;fontStyle=1;overflow=hidden;html=1;" parent="tJjoTh5x9sIFmA15xVmD-163" vertex="1">
          <mxGeometry width="30" height="30" as="geometry">
            <mxRectangle width="30" height="30" as="alternateBounds" />
          </mxGeometry>
        </mxCell>
        <mxCell id="tJjoTh5x9sIFmA15xVmD-165" value="action_type_id" style="shape=partialRectangle;connectable=0;fillColor=none;top=0;left=0;bottom=0;right=0;align=left;spacingLeft=6;fontStyle=5;overflow=hidden;html=1;" parent="tJjoTh5x9sIFmA15xVmD-163" vertex="1">
          <mxGeometry x="30" width="130" height="30" as="geometry">
            <mxRectangle width="130" height="30" as="alternateBounds" />
          </mxGeometry>
        </mxCell>
        <mxCell id="tJjoTh5x9sIFmA15xVmD-166" value="" style="shape=tableRow;horizontal=0;startSize=0;swimlaneHead=0;swimlaneBody=0;fillColor=none;collapsible=0;dropTarget=0;points=[[0,0.5],[1,0.5]];portConstraint=eastwest;top=0;left=0;right=0;bottom=0;html=1;" parent="tJjoTh5x9sIFmA15xVmD-162" vertex="1">
          <mxGeometry y="60" width="160" height="30" as="geometry" />
        </mxCell>
        <mxCell id="tJjoTh5x9sIFmA15xVmD-167" value="" style="shape=partialRectangle;connectable=0;fillColor=none;top=0;left=0;bottom=0;right=0;editable=1;overflow=hidden;html=1;fontStyle=0" parent="tJjoTh5x9sIFmA15xVmD-166" vertex="1">
          <mxGeometry width="30" height="30" as="geometry">
            <mxRectangle width="30" height="30" as="alternateBounds" />
          </mxGeometry>
        </mxCell>
        <mxCell id="tJjoTh5x9sIFmA15xVmD-168" value="name" style="shape=partialRectangle;connectable=0;fillColor=none;top=0;left=0;bottom=0;right=0;align=left;spacingLeft=6;overflow=hidden;html=1;" parent="tJjoTh5x9sIFmA15xVmD-166" vertex="1">
          <mxGeometry x="30" width="130" height="30" as="geometry">
            <mxRectangle width="130" height="30" as="alternateBounds" />
          </mxGeometry>
        </mxCell>
        <mxCell id="tJjoTh5x9sIFmA15xVmD-169" value="" style="shape=tableRow;horizontal=0;startSize=0;swimlaneHead=0;swimlaneBody=0;fillColor=none;collapsible=0;dropTarget=0;points=[[0,0.5],[1,0.5]];portConstraint=eastwest;top=0;left=0;right=0;bottom=0;html=1;" parent="tJjoTh5x9sIFmA15xVmD-162" vertex="1">
          <mxGeometry y="90" width="160" height="30" as="geometry" />
        </mxCell>
        <mxCell id="tJjoTh5x9sIFmA15xVmD-170" value="" style="shape=partialRectangle;connectable=0;fillColor=none;top=0;left=0;bottom=0;right=0;editable=1;overflow=hidden;html=1;fontStyle=0" parent="tJjoTh5x9sIFmA15xVmD-169" vertex="1">
          <mxGeometry width="30" height="30" as="geometry">
            <mxRectangle width="30" height="30" as="alternateBounds" />
          </mxGeometry>
        </mxCell>
        <mxCell id="tJjoTh5x9sIFmA15xVmD-171" value="description" style="shape=partialRectangle;connectable=0;fillColor=none;top=0;left=0;bottom=0;right=0;align=left;spacingLeft=6;overflow=hidden;html=1;" parent="tJjoTh5x9sIFmA15xVmD-169" vertex="1">
          <mxGeometry x="30" width="130" height="30" as="geometry">
            <mxRectangle width="130" height="30" as="alternateBounds" />
          </mxGeometry>
        </mxCell>
        <mxCell id="tJjoTh5x9sIFmA15xVmD-176" style="edgeStyle=orthogonalEdgeStyle;rounded=1;orthogonalLoop=1;jettySize=auto;html=1;entryX=1;entryY=0.5;entryDx=0;entryDy=0;startArrow=ERmany;startFill=0;endArrow=none;endFill=0;startSize=10;endSize=10;jumpStyle=gap;jumpSize=10;" parent="1" source="tJjoTh5x9sIFmA15xVmD-159" target="tJjoTh5x9sIFmA15xVmD-163" edge="1">
          <mxGeometry relative="1" as="geometry">
            <mxPoint x="570" y="360" as="sourcePoint" />
            <Array as="points">
              <mxPoint x="560" y="505" />
              <mxPoint x="560" y="445" />
            </Array>
          </mxGeometry>
        </mxCell>
        <mxCell id="tJjoTh5x9sIFmA15xVmD-177" style="edgeStyle=orthogonalEdgeStyle;rounded=1;orthogonalLoop=1;jettySize=auto;html=1;exitX=1;exitY=0.5;exitDx=0;exitDy=0;startArrow=ERmany;startFill=0;endArrow=none;endFill=0;startSize=10;endSize=10;jumpStyle=gap;jumpSize=10;entryX=1;entryY=0.5;entryDx=0;entryDy=0;" parent="1" source="tJjoTh5x9sIFmA15xVmD-153" target="tJjoTh5x9sIFmA15xVmD-127" edge="1">
          <mxGeometry relative="1" as="geometry">
            <mxPoint x="800" y="125" as="targetPoint" />
            <Array as="points">
              <mxPoint x="880" y="475" />
              <mxPoint x="880" y="85" />
            </Array>
          </mxGeometry>
        </mxCell>
        <mxCell id="VE5APxpFyQbxVgRIOtsa-1" value="roles" style="shape=table;startSize=30;container=1;collapsible=1;childLayout=tableLayout;fixedRows=1;rowLines=0;fontStyle=1;align=center;resizeLast=1;html=1;rounded=1;" parent="1" vertex="1">
          <mxGeometry x="640" y="-80" width="160" height="90" as="geometry" />
        </mxCell>
        <mxCell id="VE5APxpFyQbxVgRIOtsa-2" value="" style="shape=tableRow;horizontal=0;startSize=0;swimlaneHead=0;swimlaneBody=0;fillColor=none;collapsible=0;dropTarget=0;points=[[0,0.5],[1,0.5]];portConstraint=eastwest;top=0;left=0;right=0;bottom=1;html=1;" parent="VE5APxpFyQbxVgRIOtsa-1" vertex="1">
          <mxGeometry y="30" width="160" height="30" as="geometry" />
        </mxCell>
        <mxCell id="VE5APxpFyQbxVgRIOtsa-3" value="PK" style="shape=partialRectangle;connectable=0;fillColor=none;top=0;left=0;bottom=0;right=0;fontStyle=1;overflow=hidden;html=1;" parent="VE5APxpFyQbxVgRIOtsa-2" vertex="1">
          <mxGeometry width="30" height="30" as="geometry">
            <mxRectangle width="30" height="30" as="alternateBounds" />
          </mxGeometry>
        </mxCell>
        <mxCell id="VE5APxpFyQbxVgRIOtsa-4" value="role_id" style="shape=partialRectangle;connectable=0;fillColor=none;top=0;left=0;bottom=0;right=0;align=left;spacingLeft=6;fontStyle=5;overflow=hidden;html=1;" parent="VE5APxpFyQbxVgRIOtsa-2" vertex="1">
          <mxGeometry x="30" width="130" height="30" as="geometry">
            <mxRectangle width="130" height="30" as="alternateBounds" />
          </mxGeometry>
        </mxCell>
        <mxCell id="VE5APxpFyQbxVgRIOtsa-5" value="" style="shape=tableRow;horizontal=0;startSize=0;swimlaneHead=0;swimlaneBody=0;fillColor=none;collapsible=0;dropTarget=0;points=[[0,0.5],[1,0.5]];portConstraint=eastwest;top=0;left=0;right=0;bottom=0;html=1;" parent="VE5APxpFyQbxVgRIOtsa-1" vertex="1">
          <mxGeometry y="60" width="160" height="30" as="geometry" />
        </mxCell>
        <mxCell id="VE5APxpFyQbxVgRIOtsa-6" value="" style="shape=partialRectangle;connectable=0;fillColor=none;top=0;left=0;bottom=0;right=0;editable=1;overflow=hidden;html=1;fontStyle=0" parent="VE5APxpFyQbxVgRIOtsa-5" vertex="1">
          <mxGeometry width="30" height="30" as="geometry">
            <mxRectangle width="30" height="30" as="alternateBounds" />
          </mxGeometry>
        </mxCell>
        <mxCell id="VE5APxpFyQbxVgRIOtsa-7" value="name" style="shape=partialRectangle;connectable=0;fillColor=none;top=0;left=0;bottom=0;right=0;align=left;spacingLeft=6;overflow=hidden;html=1;" parent="VE5APxpFyQbxVgRIOtsa-5" vertex="1">
          <mxGeometry x="30" width="130" height="30" as="geometry">
            <mxRectangle width="130" height="30" as="alternateBounds" />
          </mxGeometry>
        </mxCell>
        <mxCell id="VE5APxpFyQbxVgRIOtsa-23" style="edgeStyle=orthogonalEdgeStyle;rounded=1;orthogonalLoop=1;jettySize=auto;html=1;endArrow=ERmany;endFill=0;startSize=10;endSize=10;jumpStyle=gap;jumpSize=10;entryX=1;entryY=0.5;entryDx=0;entryDy=0;" parent="1" target="VE5APxpFyQbxVgRIOtsa-20" edge="1">
          <mxGeometry relative="1" as="geometry">
            <mxPoint x="800" y="-35" as="sourcePoint" />
            <Array as="points">
              <mxPoint x="840" y="-35" />
              <mxPoint x="840" y="115" />
            </Array>
          </mxGeometry>
        </mxCell>
        <mxCell id="TileePiu1FDQsJoA0QER-4" value="bike_services" style="shape=table;startSize=30;container=1;collapsible=1;childLayout=tableLayout;fixedRows=1;rowLines=0;fontStyle=1;align=center;resizeLast=1;html=1;rounded=1;" parent="1" vertex="1">
          <mxGeometry x="-240" y="410" width="160" height="240" as="geometry" />
        </mxCell>
        <mxCell id="TileePiu1FDQsJoA0QER-5" value="" style="shape=tableRow;horizontal=0;startSize=0;swimlaneHead=0;swimlaneBody=0;fillColor=none;collapsible=0;dropTarget=0;points=[[0,0.5],[1,0.5]];portConstraint=eastwest;top=0;left=0;right=0;bottom=1;html=1;" parent="TileePiu1FDQsJoA0QER-4" vertex="1">
          <mxGeometry y="30" width="160" height="30" as="geometry" />
        </mxCell>
        <mxCell id="TileePiu1FDQsJoA0QER-6" value="PK" style="shape=partialRectangle;connectable=0;fillColor=none;top=0;left=0;bottom=0;right=0;fontStyle=1;overflow=hidden;html=1;" parent="TileePiu1FDQsJoA0QER-5" vertex="1">
          <mxGeometry width="30" height="30" as="geometry">
            <mxRectangle width="30" height="30" as="alternateBounds" />
          </mxGeometry>
        </mxCell>
        <mxCell id="TileePiu1FDQsJoA0QER-7" value="bike_service_id" style="shape=partialRectangle;connectable=0;fillColor=none;top=0;left=0;bottom=0;right=0;align=left;spacingLeft=6;fontStyle=5;overflow=hidden;html=1;" parent="TileePiu1FDQsJoA0QER-5" vertex="1">
          <mxGeometry x="30" width="130" height="30" as="geometry">
            <mxRectangle width="130" height="30" as="alternateBounds" />
          </mxGeometry>
        </mxCell>
        <mxCell id="TileePiu1FDQsJoA0QER-8" value="" style="shape=tableRow;horizontal=0;startSize=0;swimlaneHead=0;swimlaneBody=0;fillColor=none;collapsible=0;dropTarget=0;points=[[0,0.5],[1,0.5]];portConstraint=eastwest;top=0;left=0;right=0;bottom=0;html=1;" parent="TileePiu1FDQsJoA0QER-4" vertex="1">
          <mxGeometry y="60" width="160" height="30" as="geometry" />
        </mxCell>
        <mxCell id="TileePiu1FDQsJoA0QER-9" value="FK" style="shape=partialRectangle;connectable=0;fillColor=none;top=0;left=0;bottom=0;right=0;editable=1;overflow=hidden;html=1;fontStyle=0" parent="TileePiu1FDQsJoA0QER-8" vertex="1">
          <mxGeometry width="30" height="30" as="geometry">
            <mxRectangle width="30" height="30" as="alternateBounds" />
          </mxGeometry>
        </mxCell>
        <mxCell id="TileePiu1FDQsJoA0QER-10" value="bike_id" style="shape=partialRectangle;connectable=0;fillColor=none;top=0;left=0;bottom=0;right=0;align=left;spacingLeft=6;overflow=hidden;html=1;" parent="TileePiu1FDQsJoA0QER-8" vertex="1">
          <mxGeometry x="30" width="130" height="30" as="geometry">
            <mxRectangle width="130" height="30" as="alternateBounds" />
          </mxGeometry>
        </mxCell>
        <mxCell id="TileePiu1FDQsJoA0QER-53" value="" style="shape=tableRow;horizontal=0;startSize=0;swimlaneHead=0;swimlaneBody=0;fillColor=none;collapsible=0;dropTarget=0;points=[[0,0.5],[1,0.5]];portConstraint=eastwest;top=0;left=0;right=0;bottom=0;html=1;" parent="TileePiu1FDQsJoA0QER-4" vertex="1">
          <mxGeometry y="90" width="160" height="30" as="geometry" />
        </mxCell>
        <mxCell id="TileePiu1FDQsJoA0QER-54" value="FK" style="shape=partialRectangle;connectable=0;fillColor=none;top=0;left=0;bottom=0;right=0;editable=1;overflow=hidden;html=1;fontStyle=0" parent="TileePiu1FDQsJoA0QER-53" vertex="1">
          <mxGeometry width="30" height="30" as="geometry">
            <mxRectangle width="30" height="30" as="alternateBounds" />
          </mxGeometry>
        </mxCell>
        <mxCell id="TileePiu1FDQsJoA0QER-55" value="service_state_type_id" style="shape=partialRectangle;connectable=0;fillColor=none;top=0;left=0;bottom=0;right=0;align=left;spacingLeft=6;overflow=hidden;html=1;" parent="TileePiu1FDQsJoA0QER-53" vertex="1">
          <mxGeometry x="30" width="130" height="30" as="geometry">
            <mxRectangle width="130" height="30" as="alternateBounds" />
          </mxGeometry>
        </mxCell>
        <mxCell id="TileePiu1FDQsJoA0QER-11" value="" style="shape=tableRow;horizontal=0;startSize=0;swimlaneHead=0;swimlaneBody=0;fillColor=none;collapsible=0;dropTarget=0;points=[[0,0.5],[1,0.5]];portConstraint=eastwest;top=0;left=0;right=0;bottom=0;html=1;" parent="TileePiu1FDQsJoA0QER-4" vertex="1">
          <mxGeometry y="120" width="160" height="30" as="geometry" />
        </mxCell>
        <mxCell id="TileePiu1FDQsJoA0QER-12" value="" style="shape=partialRectangle;connectable=0;fillColor=none;top=0;left=0;bottom=0;right=0;editable=1;overflow=hidden;html=1;fontStyle=0" parent="TileePiu1FDQsJoA0QER-11" vertex="1">
          <mxGeometry width="30" height="30" as="geometry">
            <mxRectangle width="30" height="30" as="alternateBounds" />
          </mxGeometry>
        </mxCell>
        <mxCell id="TileePiu1FDQsJoA0QER-13" value="datetime_from" style="shape=partialRectangle;connectable=0;fillColor=none;top=0;left=0;bottom=0;right=0;align=left;spacingLeft=6;overflow=hidden;html=1;" parent="TileePiu1FDQsJoA0QER-11" vertex="1">
          <mxGeometry x="30" width="130" height="30" as="geometry">
            <mxRectangle width="130" height="30" as="alternateBounds" />
          </mxGeometry>
        </mxCell>
        <mxCell id="ZOS2vYi2qAPQNt6-Y6eB-20" value="" style="shape=tableRow;horizontal=0;startSize=0;swimlaneHead=0;swimlaneBody=0;fillColor=none;collapsible=0;dropTarget=0;points=[[0,0.5],[1,0.5]];portConstraint=eastwest;top=0;left=0;right=0;bottom=0;html=1;" parent="TileePiu1FDQsJoA0QER-4" vertex="1">
          <mxGeometry y="150" width="160" height="30" as="geometry" />
        </mxCell>
        <mxCell id="ZOS2vYi2qAPQNt6-Y6eB-21" value="" style="shape=partialRectangle;connectable=0;fillColor=none;top=0;left=0;bottom=0;right=0;editable=1;overflow=hidden;html=1;fontStyle=0" parent="ZOS2vYi2qAPQNt6-Y6eB-20" vertex="1">
          <mxGeometry width="30" height="30" as="geometry">
            <mxRectangle width="30" height="30" as="alternateBounds" />
          </mxGeometry>
        </mxCell>
        <mxCell id="ZOS2vYi2qAPQNt6-Y6eB-22" value="datetime_to" style="shape=partialRectangle;connectable=0;fillColor=none;top=0;left=0;bottom=0;right=0;align=left;spacingLeft=6;overflow=hidden;html=1;" parent="ZOS2vYi2qAPQNt6-Y6eB-20" vertex="1">
          <mxGeometry x="30" width="130" height="30" as="geometry">
            <mxRectangle width="130" height="30" as="alternateBounds" />
          </mxGeometry>
        </mxCell>
        <mxCell id="TileePiu1FDQsJoA0QER-56" value="" style="shape=tableRow;horizontal=0;startSize=0;swimlaneHead=0;swimlaneBody=0;fillColor=none;collapsible=0;dropTarget=0;points=[[0,0.5],[1,0.5]];portConstraint=eastwest;top=0;left=0;right=0;bottom=0;html=1;" parent="TileePiu1FDQsJoA0QER-4" vertex="1">
          <mxGeometry y="180" width="160" height="30" as="geometry" />
        </mxCell>
        <mxCell id="TileePiu1FDQsJoA0QER-57" value="" style="shape=partialRectangle;connectable=0;fillColor=none;top=0;left=0;bottom=0;right=0;editable=1;overflow=hidden;html=1;fontStyle=0" parent="TileePiu1FDQsJoA0QER-56" vertex="1">
          <mxGeometry width="30" height="30" as="geometry">
            <mxRectangle width="30" height="30" as="alternateBounds" />
          </mxGeometry>
        </mxCell>
        <mxCell id="TileePiu1FDQsJoA0QER-58" value="reason" style="shape=partialRectangle;connectable=0;fillColor=none;top=0;left=0;bottom=0;right=0;align=left;spacingLeft=6;overflow=hidden;html=1;" parent="TileePiu1FDQsJoA0QER-56" vertex="1">
          <mxGeometry x="30" width="130" height="30" as="geometry">
            <mxRectangle width="130" height="30" as="alternateBounds" />
          </mxGeometry>
        </mxCell>
        <mxCell id="ZOS2vYi2qAPQNt6-Y6eB-23" value="" style="shape=tableRow;horizontal=0;startSize=0;swimlaneHead=0;swimlaneBody=0;fillColor=none;collapsible=0;dropTarget=0;points=[[0,0.5],[1,0.5]];portConstraint=eastwest;top=0;left=0;right=0;bottom=0;html=1;" parent="TileePiu1FDQsJoA0QER-4" vertex="1">
          <mxGeometry y="210" width="160" height="30" as="geometry" />
        </mxCell>
        <mxCell id="ZOS2vYi2qAPQNt6-Y6eB-24" value="" style="shape=partialRectangle;connectable=0;fillColor=none;top=0;left=0;bottom=0;right=0;editable=1;overflow=hidden;html=1;fontStyle=0" parent="ZOS2vYi2qAPQNt6-Y6eB-23" vertex="1">
          <mxGeometry width="30" height="30" as="geometry">
            <mxRectangle width="30" height="30" as="alternateBounds" />
          </mxGeometry>
        </mxCell>
        <mxCell id="ZOS2vYi2qAPQNt6-Y6eB-25" value="price" style="shape=partialRectangle;connectable=0;fillColor=none;top=0;left=0;bottom=0;right=0;align=left;spacingLeft=6;overflow=hidden;html=1;" parent="ZOS2vYi2qAPQNt6-Y6eB-23" vertex="1">
          <mxGeometry x="30" width="130" height="30" as="geometry">
            <mxRectangle width="130" height="30" as="alternateBounds" />
          </mxGeometry>
        </mxCell>
        <mxCell id="TileePiu1FDQsJoA0QER-14" value="return_reports" style="shape=table;startSize=30;container=1;collapsible=1;childLayout=tableLayout;fixedRows=1;rowLines=0;fontStyle=1;align=center;resizeLast=1;html=1;rounded=1;" parent="1" vertex="1">
          <mxGeometry x="-240" y="160" width="160" height="210" as="geometry" />
        </mxCell>
        <mxCell id="TileePiu1FDQsJoA0QER-15" value="" style="shape=tableRow;horizontal=0;startSize=0;swimlaneHead=0;swimlaneBody=0;fillColor=none;collapsible=0;dropTarget=0;points=[[0,0.5],[1,0.5]];portConstraint=eastwest;top=0;left=0;right=0;bottom=1;html=1;" parent="TileePiu1FDQsJoA0QER-14" vertex="1">
          <mxGeometry y="30" width="160" height="30" as="geometry" />
        </mxCell>
        <mxCell id="TileePiu1FDQsJoA0QER-16" value="PK" style="shape=partialRectangle;connectable=0;fillColor=none;top=0;left=0;bottom=0;right=0;fontStyle=1;overflow=hidden;html=1;" parent="TileePiu1FDQsJoA0QER-15" vertex="1">
          <mxGeometry width="30" height="30" as="geometry">
            <mxRectangle width="30" height="30" as="alternateBounds" />
          </mxGeometry>
        </mxCell>
        <mxCell id="TileePiu1FDQsJoA0QER-17" value="return_report_id" style="shape=partialRectangle;connectable=0;fillColor=none;top=0;left=0;bottom=0;right=0;align=left;spacingLeft=6;fontStyle=5;overflow=hidden;html=1;" parent="TileePiu1FDQsJoA0QER-15" vertex="1">
          <mxGeometry x="30" width="130" height="30" as="geometry">
            <mxRectangle width="130" height="30" as="alternateBounds" />
          </mxGeometry>
        </mxCell>
        <mxCell id="TileePiu1FDQsJoA0QER-18" value="" style="shape=tableRow;horizontal=0;startSize=0;swimlaneHead=0;swimlaneBody=0;fillColor=none;collapsible=0;dropTarget=0;points=[[0,0.5],[1,0.5]];portConstraint=eastwest;top=0;left=0;right=0;bottom=0;html=1;" parent="TileePiu1FDQsJoA0QER-14" vertex="1">
          <mxGeometry y="60" width="160" height="30" as="geometry" />
        </mxCell>
        <mxCell id="TileePiu1FDQsJoA0QER-19" value="FK" style="shape=partialRectangle;connectable=0;fillColor=none;top=0;left=0;bottom=0;right=0;editable=1;overflow=hidden;html=1;fontStyle=0" parent="TileePiu1FDQsJoA0QER-18" vertex="1">
          <mxGeometry width="30" height="30" as="geometry">
            <mxRectangle width="30" height="30" as="alternateBounds" />
          </mxGeometry>
        </mxCell>
        <mxCell id="TileePiu1FDQsJoA0QER-20" value="bike_id" style="shape=partialRectangle;connectable=0;fillColor=none;top=0;left=0;bottom=0;right=0;align=left;spacingLeft=6;overflow=hidden;html=1;" parent="TileePiu1FDQsJoA0QER-18" vertex="1">
          <mxGeometry x="30" width="130" height="30" as="geometry">
            <mxRectangle width="130" height="30" as="alternateBounds" />
          </mxGeometry>
        </mxCell>
        <mxCell id="TileePiu1FDQsJoA0QER-21" value="" style="shape=tableRow;horizontal=0;startSize=0;swimlaneHead=0;swimlaneBody=0;fillColor=none;collapsible=0;dropTarget=0;points=[[0,0.5],[1,0.5]];portConstraint=eastwest;top=0;left=0;right=0;bottom=0;html=1;" parent="TileePiu1FDQsJoA0QER-14" vertex="1">
          <mxGeometry y="90" width="160" height="30" as="geometry" />
        </mxCell>
        <mxCell id="TileePiu1FDQsJoA0QER-22" value="FK" style="shape=partialRectangle;connectable=0;fillColor=none;top=0;left=0;bottom=0;right=0;editable=1;overflow=hidden;html=1;fontStyle=0" parent="TileePiu1FDQsJoA0QER-21" vertex="1">
          <mxGeometry width="30" height="30" as="geometry">
            <mxRectangle width="30" height="30" as="alternateBounds" />
          </mxGeometry>
        </mxCell>
        <mxCell id="TileePiu1FDQsJoA0QER-23" value="borrow_id" style="shape=partialRectangle;connectable=0;fillColor=none;top=0;left=0;bottom=0;right=0;align=left;spacingLeft=6;overflow=hidden;html=1;" parent="TileePiu1FDQsJoA0QER-21" vertex="1">
          <mxGeometry x="30" width="130" height="30" as="geometry">
            <mxRectangle width="130" height="30" as="alternateBounds" />
          </mxGeometry>
        </mxCell>
        <mxCell id="ZOS2vYi2qAPQNt6-Y6eB-4" value="" style="shape=tableRow;horizontal=0;startSize=0;swimlaneHead=0;swimlaneBody=0;fillColor=none;collapsible=0;dropTarget=0;points=[[0,0.5],[1,0.5]];portConstraint=eastwest;top=0;left=0;right=0;bottom=0;html=1;" parent="TileePiu1FDQsJoA0QER-14" vertex="1">
          <mxGeometry y="120" width="160" height="30" as="geometry" />
        </mxCell>
        <mxCell id="ZOS2vYi2qAPQNt6-Y6eB-5" value="FK" style="shape=partialRectangle;connectable=0;fillColor=none;top=0;left=0;bottom=0;right=0;editable=1;overflow=hidden;html=1;fontStyle=0" parent="ZOS2vYi2qAPQNt6-Y6eB-4" vertex="1">
          <mxGeometry width="30" height="30" as="geometry">
            <mxRectangle width="30" height="30" as="alternateBounds" />
          </mxGeometry>
        </mxCell>
        <mxCell id="ZOS2vYi2qAPQNt6-Y6eB-6" value="user_id" style="shape=partialRectangle;connectable=0;fillColor=none;top=0;left=0;bottom=0;right=0;align=left;spacingLeft=6;overflow=hidden;html=1;" parent="ZOS2vYi2qAPQNt6-Y6eB-4" vertex="1">
          <mxGeometry x="30" width="130" height="30" as="geometry">
            <mxRectangle width="130" height="30" as="alternateBounds" />
          </mxGeometry>
        </mxCell>
        <mxCell id="TileePiu1FDQsJoA0QER-89" value="" style="shape=tableRow;horizontal=0;startSize=0;swimlaneHead=0;swimlaneBody=0;fillColor=none;collapsible=0;dropTarget=0;points=[[0,0.5],[1,0.5]];portConstraint=eastwest;top=0;left=0;right=0;bottom=0;html=1;" parent="TileePiu1FDQsJoA0QER-14" vertex="1">
          <mxGeometry y="150" width="160" height="30" as="geometry" />
        </mxCell>
        <mxCell id="TileePiu1FDQsJoA0QER-90" value="FK" style="shape=partialRectangle;connectable=0;fillColor=none;top=0;left=0;bottom=0;right=0;editable=1;overflow=hidden;html=1;fontStyle=0" parent="TileePiu1FDQsJoA0QER-89" vertex="1">
          <mxGeometry width="30" height="30" as="geometry">
            <mxRectangle width="30" height="30" as="alternateBounds" />
          </mxGeometry>
        </mxCell>
        <mxCell id="TileePiu1FDQsJoA0QER-91" value="bike_state_type_id" style="shape=partialRectangle;connectable=0;fillColor=none;top=0;left=0;bottom=0;right=0;align=left;spacingLeft=6;overflow=hidden;html=1;" parent="TileePiu1FDQsJoA0QER-89" vertex="1">
          <mxGeometry x="30" width="130" height="30" as="geometry">
            <mxRectangle width="130" height="30" as="alternateBounds" />
          </mxGeometry>
        </mxCell>
        <mxCell id="TileePiu1FDQsJoA0QER-48" value="" style="shape=tableRow;horizontal=0;startSize=0;swimlaneHead=0;swimlaneBody=0;fillColor=none;collapsible=0;dropTarget=0;points=[[0,0.5],[1,0.5]];portConstraint=eastwest;top=0;left=0;right=0;bottom=0;html=1;" parent="TileePiu1FDQsJoA0QER-14" vertex="1">
          <mxGeometry y="180" width="160" height="30" as="geometry" />
        </mxCell>
        <mxCell id="TileePiu1FDQsJoA0QER-49" value="" style="shape=partialRectangle;connectable=0;fillColor=none;top=0;left=0;bottom=0;right=0;editable=1;overflow=hidden;html=1;fontStyle=0" parent="TileePiu1FDQsJoA0QER-48" vertex="1">
          <mxGeometry width="30" height="30" as="geometry">
            <mxRectangle width="30" height="30" as="alternateBounds" />
          </mxGeometry>
        </mxCell>
        <mxCell id="TileePiu1FDQsJoA0QER-50" value="employee_note" style="shape=partialRectangle;connectable=0;fillColor=none;top=0;left=0;bottom=0;right=0;align=left;spacingLeft=6;overflow=hidden;html=1;" parent="TileePiu1FDQsJoA0QER-48" vertex="1">
          <mxGeometry x="30" width="130" height="30" as="geometry">
            <mxRectangle width="130" height="30" as="alternateBounds" />
          </mxGeometry>
        </mxCell>
        <mxCell id="TileePiu1FDQsJoA0QER-27" style="edgeStyle=orthogonalEdgeStyle;rounded=1;jumpStyle=gap;jumpSize=10;orthogonalLoop=1;jettySize=auto;html=1;exitX=0;exitY=0.5;exitDx=0;exitDy=0;entryX=1;entryY=0.5;entryDx=0;entryDy=0;endArrow=ERmany;endFill=0;startSize=10;endSize=10;" parent="1" source="tJjoTh5x9sIFmA15xVmD-72" target="TileePiu1FDQsJoA0QER-18" edge="1">
          <mxGeometry relative="1" as="geometry">
            <Array as="points">
              <mxPoint x="-40" y="-75" />
              <mxPoint x="-40" y="235" />
            </Array>
          </mxGeometry>
        </mxCell>
        <mxCell id="TileePiu1FDQsJoA0QER-29" style="edgeStyle=orthogonalEdgeStyle;rounded=1;jumpStyle=gap;jumpSize=10;orthogonalLoop=1;jettySize=auto;html=1;exitX=1;exitY=0.5;exitDx=0;exitDy=0;entryX=1;entryY=0.5;entryDx=0;entryDy=0;endArrow=ERmany;endFill=0;startSize=10;endSize=10;" parent="1" source="tJjoTh5x9sIFmA15xVmD-101" target="TileePiu1FDQsJoA0QER-21" edge="1">
          <mxGeometry relative="1" as="geometry">
            <Array as="points">
              <mxPoint x="560" y="115" />
              <mxPoint x="560" y="300" />
              <mxPoint x="-40" y="300" />
              <mxPoint x="-40" y="265" />
            </Array>
          </mxGeometry>
        </mxCell>
        <mxCell id="TileePiu1FDQsJoA0QER-52" style="edgeStyle=orthogonalEdgeStyle;rounded=1;jumpStyle=gap;jumpSize=10;orthogonalLoop=1;jettySize=auto;html=1;exitX=0;exitY=0.5;exitDx=0;exitDy=0;entryX=1;entryY=0.5;entryDx=0;entryDy=0;endArrow=ERmany;endFill=0;startSize=10;endSize=10;" parent="1" source="tJjoTh5x9sIFmA15xVmD-72" target="TileePiu1FDQsJoA0QER-8" edge="1">
          <mxGeometry relative="1" as="geometry" />
        </mxCell>
        <mxCell id="TileePiu1FDQsJoA0QER-79" value="bike_state_types" style="shape=table;startSize=30;container=1;collapsible=1;childLayout=tableLayout;fixedRows=1;rowLines=0;fontStyle=1;align=center;resizeLast=1;html=1;rounded=1;" parent="1" vertex="1">
          <mxGeometry x="-240" y="-40" width="160" height="120" as="geometry" />
        </mxCell>
        <mxCell id="TileePiu1FDQsJoA0QER-80" value="" style="shape=tableRow;horizontal=0;startSize=0;swimlaneHead=0;swimlaneBody=0;fillColor=none;collapsible=0;dropTarget=0;points=[[0,0.5],[1,0.5]];portConstraint=eastwest;top=0;left=0;right=0;bottom=1;html=1;" parent="TileePiu1FDQsJoA0QER-79" vertex="1">
          <mxGeometry y="30" width="160" height="30" as="geometry" />
        </mxCell>
        <mxCell id="TileePiu1FDQsJoA0QER-81" value="PK" style="shape=partialRectangle;connectable=0;fillColor=none;top=0;left=0;bottom=0;right=0;fontStyle=1;overflow=hidden;html=1;" parent="TileePiu1FDQsJoA0QER-80" vertex="1">
          <mxGeometry width="30" height="30" as="geometry">
            <mxRectangle width="30" height="30" as="alternateBounds" />
          </mxGeometry>
        </mxCell>
        <mxCell id="TileePiu1FDQsJoA0QER-82" value="bike_state_type_id" style="shape=partialRectangle;connectable=0;fillColor=none;top=0;left=0;bottom=0;right=0;align=left;spacingLeft=6;fontStyle=5;overflow=hidden;html=1;" parent="TileePiu1FDQsJoA0QER-80" vertex="1">
          <mxGeometry x="30" width="130" height="30" as="geometry">
            <mxRectangle width="130" height="30" as="alternateBounds" />
          </mxGeometry>
        </mxCell>
        <mxCell id="TileePiu1FDQsJoA0QER-83" value="" style="shape=tableRow;horizontal=0;startSize=0;swimlaneHead=0;swimlaneBody=0;fillColor=none;collapsible=0;dropTarget=0;points=[[0,0.5],[1,0.5]];portConstraint=eastwest;top=0;left=0;right=0;bottom=0;html=1;" parent="TileePiu1FDQsJoA0QER-79" vertex="1">
          <mxGeometry y="60" width="160" height="30" as="geometry" />
        </mxCell>
        <mxCell id="TileePiu1FDQsJoA0QER-84" value="" style="shape=partialRectangle;connectable=0;fillColor=none;top=0;left=0;bottom=0;right=0;editable=1;overflow=hidden;html=1;fontStyle=0" parent="TileePiu1FDQsJoA0QER-83" vertex="1">
          <mxGeometry width="30" height="30" as="geometry">
            <mxRectangle width="30" height="30" as="alternateBounds" />
          </mxGeometry>
        </mxCell>
        <mxCell id="TileePiu1FDQsJoA0QER-85" value="name" style="shape=partialRectangle;connectable=0;fillColor=none;top=0;left=0;bottom=0;right=0;align=left;spacingLeft=6;overflow=hidden;html=1;" parent="TileePiu1FDQsJoA0QER-83" vertex="1">
          <mxGeometry x="30" width="130" height="30" as="geometry">
            <mxRectangle width="130" height="30" as="alternateBounds" />
          </mxGeometry>
        </mxCell>
        <mxCell id="TileePiu1FDQsJoA0QER-86" value="" style="shape=tableRow;horizontal=0;startSize=0;swimlaneHead=0;swimlaneBody=0;fillColor=none;collapsible=0;dropTarget=0;points=[[0,0.5],[1,0.5]];portConstraint=eastwest;top=0;left=0;right=0;bottom=0;html=1;" parent="TileePiu1FDQsJoA0QER-79" vertex="1">
          <mxGeometry y="90" width="160" height="30" as="geometry" />
        </mxCell>
        <mxCell id="TileePiu1FDQsJoA0QER-87" value="" style="shape=partialRectangle;connectable=0;fillColor=none;top=0;left=0;bottom=0;right=0;editable=1;overflow=hidden;html=1;fontStyle=0" parent="TileePiu1FDQsJoA0QER-86" vertex="1">
          <mxGeometry width="30" height="30" as="geometry">
            <mxRectangle width="30" height="30" as="alternateBounds" />
          </mxGeometry>
        </mxCell>
        <mxCell id="TileePiu1FDQsJoA0QER-88" value="description" style="shape=partialRectangle;connectable=0;fillColor=none;top=0;left=0;bottom=0;right=0;align=left;spacingLeft=6;overflow=hidden;html=1;" parent="TileePiu1FDQsJoA0QER-86" vertex="1">
          <mxGeometry x="30" width="130" height="30" as="geometry">
            <mxRectangle width="130" height="30" as="alternateBounds" />
          </mxGeometry>
        </mxCell>
        <mxCell id="TileePiu1FDQsJoA0QER-93" style="edgeStyle=orthogonalEdgeStyle;rounded=1;jumpStyle=gap;jumpSize=10;orthogonalLoop=1;jettySize=auto;html=1;exitX=0;exitY=0.5;exitDx=0;exitDy=0;entryX=0;entryY=0.5;entryDx=0;entryDy=0;endArrow=ERmany;endFill=0;startSize=10;endSize=10;" parent="1" source="TileePiu1FDQsJoA0QER-80" target="TileePiu1FDQsJoA0QER-89" edge="1">
          <mxGeometry relative="1" as="geometry">
            <Array as="points">
              <mxPoint x="-280" y="5" />
              <mxPoint x="-280" y="325" />
            </Array>
          </mxGeometry>
        </mxCell>
        <mxCell id="TileePiu1FDQsJoA0QER-94" value="service_state_types" style="shape=table;startSize=30;container=1;collapsible=1;childLayout=tableLayout;fixedRows=1;rowLines=0;fontStyle=1;align=center;resizeLast=1;html=1;rounded=1;" parent="1" vertex="1">
          <mxGeometry x="70" y="560" width="180" height="120" as="geometry" />
        </mxCell>
        <mxCell id="TileePiu1FDQsJoA0QER-95" value="" style="shape=tableRow;horizontal=0;startSize=0;swimlaneHead=0;swimlaneBody=0;fillColor=none;collapsible=0;dropTarget=0;points=[[0,0.5],[1,0.5]];portConstraint=eastwest;top=0;left=0;right=0;bottom=1;html=1;" parent="TileePiu1FDQsJoA0QER-94" vertex="1">
          <mxGeometry y="30" width="180" height="30" as="geometry" />
        </mxCell>
        <mxCell id="TileePiu1FDQsJoA0QER-96" value="PK" style="shape=partialRectangle;connectable=0;fillColor=none;top=0;left=0;bottom=0;right=0;fontStyle=1;overflow=hidden;html=1;" parent="TileePiu1FDQsJoA0QER-95" vertex="1">
          <mxGeometry width="30" height="30" as="geometry">
            <mxRectangle width="30" height="30" as="alternateBounds" />
          </mxGeometry>
        </mxCell>
        <mxCell id="TileePiu1FDQsJoA0QER-97" value="service_state_type_id" style="shape=partialRectangle;connectable=0;fillColor=none;top=0;left=0;bottom=0;right=0;align=left;spacingLeft=6;fontStyle=5;overflow=hidden;html=1;" parent="TileePiu1FDQsJoA0QER-95" vertex="1">
          <mxGeometry x="30" width="150" height="30" as="geometry">
            <mxRectangle width="150" height="30" as="alternateBounds" />
          </mxGeometry>
        </mxCell>
        <mxCell id="TileePiu1FDQsJoA0QER-98" value="" style="shape=tableRow;horizontal=0;startSize=0;swimlaneHead=0;swimlaneBody=0;fillColor=none;collapsible=0;dropTarget=0;points=[[0,0.5],[1,0.5]];portConstraint=eastwest;top=0;left=0;right=0;bottom=0;html=1;" parent="TileePiu1FDQsJoA0QER-94" vertex="1">
          <mxGeometry y="60" width="180" height="30" as="geometry" />
        </mxCell>
        <mxCell id="TileePiu1FDQsJoA0QER-99" value="" style="shape=partialRectangle;connectable=0;fillColor=none;top=0;left=0;bottom=0;right=0;editable=1;overflow=hidden;html=1;fontStyle=0" parent="TileePiu1FDQsJoA0QER-98" vertex="1">
          <mxGeometry width="30" height="30" as="geometry">
            <mxRectangle width="30" height="30" as="alternateBounds" />
          </mxGeometry>
        </mxCell>
        <mxCell id="TileePiu1FDQsJoA0QER-100" value="name" style="shape=partialRectangle;connectable=0;fillColor=none;top=0;left=0;bottom=0;right=0;align=left;spacingLeft=6;overflow=hidden;html=1;" parent="TileePiu1FDQsJoA0QER-98" vertex="1">
          <mxGeometry x="30" width="150" height="30" as="geometry">
            <mxRectangle width="150" height="30" as="alternateBounds" />
          </mxGeometry>
        </mxCell>
        <mxCell id="TileePiu1FDQsJoA0QER-101" value="" style="shape=tableRow;horizontal=0;startSize=0;swimlaneHead=0;swimlaneBody=0;fillColor=none;collapsible=0;dropTarget=0;points=[[0,0.5],[1,0.5]];portConstraint=eastwest;top=0;left=0;right=0;bottom=0;html=1;" parent="TileePiu1FDQsJoA0QER-94" vertex="1">
          <mxGeometry y="90" width="180" height="30" as="geometry" />
        </mxCell>
        <mxCell id="TileePiu1FDQsJoA0QER-102" value="" style="shape=partialRectangle;connectable=0;fillColor=none;top=0;left=0;bottom=0;right=0;editable=1;overflow=hidden;html=1;fontStyle=0" parent="TileePiu1FDQsJoA0QER-101" vertex="1">
          <mxGeometry width="30" height="30" as="geometry">
            <mxRectangle width="30" height="30" as="alternateBounds" />
          </mxGeometry>
        </mxCell>
        <mxCell id="TileePiu1FDQsJoA0QER-103" value="description" style="shape=partialRectangle;connectable=0;fillColor=none;top=0;left=0;bottom=0;right=0;align=left;spacingLeft=6;overflow=hidden;html=1;" parent="TileePiu1FDQsJoA0QER-101" vertex="1">
          <mxGeometry x="30" width="150" height="30" as="geometry">
            <mxRectangle width="150" height="30" as="alternateBounds" />
          </mxGeometry>
        </mxCell>
        <mxCell id="TileePiu1FDQsJoA0QER-104" style="edgeStyle=orthogonalEdgeStyle;rounded=1;jumpStyle=gap;jumpSize=10;orthogonalLoop=1;jettySize=auto;html=1;exitX=0;exitY=0.5;exitDx=0;exitDy=0;entryX=1;entryY=0.5;entryDx=0;entryDy=0;endArrow=ERmany;endFill=0;startSize=10;endSize=10;" parent="1" source="TileePiu1FDQsJoA0QER-95" target="TileePiu1FDQsJoA0QER-53" edge="1">
          <mxGeometry relative="1" as="geometry">
            <Array as="points">
              <mxPoint y="605" />
              <mxPoint y="515" />
            </Array>
          </mxGeometry>
        </mxCell>
        <mxCell id="ZOS2vYi2qAPQNt6-Y6eB-11" value="payment_methods" style="shape=table;startSize=30;container=1;collapsible=1;childLayout=tableLayout;fixedRows=1;rowLines=0;fontStyle=1;align=center;resizeLast=1;html=1;rounded=1;" parent="1" vertex="1">
          <mxGeometry x="360" y="-120" width="200" height="90" as="geometry" />
        </mxCell>
        <mxCell id="ZOS2vYi2qAPQNt6-Y6eB-12" value="" style="shape=tableRow;horizontal=0;startSize=0;swimlaneHead=0;swimlaneBody=0;fillColor=none;collapsible=0;dropTarget=0;points=[[0,0.5],[1,0.5]];portConstraint=eastwest;top=0;left=0;right=0;bottom=1;html=1;" parent="ZOS2vYi2qAPQNt6-Y6eB-11" vertex="1">
          <mxGeometry y="30" width="200" height="30" as="geometry" />
        </mxCell>
        <mxCell id="ZOS2vYi2qAPQNt6-Y6eB-13" value="PK" style="shape=partialRectangle;connectable=0;fillColor=none;top=0;left=0;bottom=0;right=0;fontStyle=1;overflow=hidden;html=1;" parent="ZOS2vYi2qAPQNt6-Y6eB-12" vertex="1">
          <mxGeometry width="30" height="30" as="geometry">
            <mxRectangle width="30" height="30" as="alternateBounds" />
          </mxGeometry>
        </mxCell>
        <mxCell id="ZOS2vYi2qAPQNt6-Y6eB-14" value="payment_method_id" style="shape=partialRectangle;connectable=0;fillColor=none;top=0;left=0;bottom=0;right=0;align=left;spacingLeft=6;fontStyle=5;overflow=hidden;html=1;" parent="ZOS2vYi2qAPQNt6-Y6eB-12" vertex="1">
          <mxGeometry x="30" width="170" height="30" as="geometry">
            <mxRectangle width="170" height="30" as="alternateBounds" />
          </mxGeometry>
        </mxCell>
        <mxCell id="ZOS2vYi2qAPQNt6-Y6eB-15" value="" style="shape=tableRow;horizontal=0;startSize=0;swimlaneHead=0;swimlaneBody=0;fillColor=none;collapsible=0;dropTarget=0;points=[[0,0.5],[1,0.5]];portConstraint=eastwest;top=0;left=0;right=0;bottom=0;html=1;" parent="ZOS2vYi2qAPQNt6-Y6eB-11" vertex="1">
          <mxGeometry y="60" width="200" height="30" as="geometry" />
        </mxCell>
        <mxCell id="ZOS2vYi2qAPQNt6-Y6eB-16" value="" style="shape=partialRectangle;connectable=0;fillColor=none;top=0;left=0;bottom=0;right=0;editable=1;overflow=hidden;html=1;fontStyle=0" parent="ZOS2vYi2qAPQNt6-Y6eB-15" vertex="1">
          <mxGeometry width="30" height="30" as="geometry">
            <mxRectangle width="30" height="30" as="alternateBounds" />
          </mxGeometry>
        </mxCell>
        <mxCell id="ZOS2vYi2qAPQNt6-Y6eB-17" value="name" style="shape=partialRectangle;connectable=0;fillColor=none;top=0;left=0;bottom=0;right=0;align=left;spacingLeft=6;overflow=hidden;html=1;" parent="ZOS2vYi2qAPQNt6-Y6eB-15" vertex="1">
          <mxGeometry x="30" width="170" height="30" as="geometry">
            <mxRectangle width="170" height="30" as="alternateBounds" />
          </mxGeometry>
        </mxCell>
        <mxCell id="ZOS2vYi2qAPQNt6-Y6eB-18" style="edgeStyle=orthogonalEdgeStyle;rounded=1;orthogonalLoop=1;jettySize=auto;html=1;exitX=0;exitY=0.5;exitDx=0;exitDy=0;entryX=0;entryY=0.5;entryDx=0;entryDy=0;endSize=10;startSize=10;jumpSize=10;endArrow=none;endFill=0;startArrow=ERmany;startFill=0;" parent="1" source="TileePiu1FDQsJoA0QER-59" target="ZOS2vYi2qAPQNt6-Y6eB-15" edge="1">
          <mxGeometry relative="1" as="geometry">
            <Array as="points">
              <mxPoint x="320" y="235" />
              <mxPoint x="320" y="-45" />
            </Array>
          </mxGeometry>
        </mxCell>
      </root>
    </mxGraphModel>
  </diagram>
</mxfile>
